<?xml version="1.0" encoding="UTF-8"?>
<svg width="18px" height="18px" viewBox="0 0 18 18" version="1.1" xmlns="http://www.w3.org/2000/svg" xmlns:xlink="http://www.w3.org/1999/xlink">
    <!-- Generator: Sketch 49.1 (51147) - http://www.bohemiancoding.com/sketch -->
    <title>ic_btn_delete</title>
    <desc>Created with Sketch.</desc>
    <defs></defs>
    <g id="ic_btn_delete" stroke="none" stroke-width="1" fill="none" fill-rule="evenodd">
        <g fill="#A6A6A6" id="Page-1">
            <path d="M13.75,7.75 L10.25,7.75 L10.25,4.25 C10.25,3.5595 9.6905,3 9,3 C8.3095,3 7.75,3.5595 7.75,4.25 L7.75,7.75 L4.25,7.75 C3.5595,7.75 3,8.3095 3,9 C3,9.6905 3.5595,10.25 4.25,10.25 L7.75,10.25 L7.75,13.75 C7.75,14.4405 8.3095,15 9,15 C9.6905,15 10.25,14.4405 10.25,13.75 L10.25,10.25 L13.75,10.25 C14.4405,10.25 15,9.6905 15,9 C15,8.3095 14.4405,7.75 13.75,7.75" transform="translate(9.000000, 9.000000) rotate(45.000000) translate(-9.000000, -9.000000) "></path>
        </g>
    </g>
</svg>