<svg t="1733292165143" class="icon" viewBox="0 0 1024 1024" version="1.1" xmlns="http://www.w3.org/2000/svg" p-id="4518" width="16" height="16"><path d="M480 240m-240 0a240 240 0 1 0 480 0 240 240 0 1 0-480 0Z" p-id="4519" fill="#d81e06"></path><path d="M457.6 769.6c0-89.6 36.8-171.2 96-228.8-20.8-3.2-43.2-4.8-65.6-4.8C217.6 536 0 755.2 0 1024h584c-76.8-57.6-126.4-150.4-126.4-254.4zM969.6 1024h6.4v-3.2c-3.2 0-4.8 1.6-6.4 3.2z" p-id="4520" fill="#d81e06"></path><path d="M772.8 521.6c-139.2 0-251.2 113.6-249.6 251.2 0 139.2 113.6 251.2 251.2 249.6 139.2 0 251.2-113.6 249.6-251.2 0-137.6-112-249.6-251.2-249.6zM910.4 816H640c-19.2 0-36.8-11.2-40-30.4-6.4-25.6 12.8-49.6 38.4-49.6h270.4c19.2 0 36.8 11.2 40 30.4 6.4 25.6-12.8 49.6-38.4 49.6z" p-id="4521" fill="#d81e06"></path></svg>