<svg t="1700036134386" class="icon" viewBox="0 0 1024 1024" version="1.1" xmlns="http://www.w3.org/2000/svg" p-id="37643" width="16" height="16"><path d="M64 1024a64 64 0 0 1-64-64V64a64 64 0 0 1 64-64h896a64.096 64.096 0 0 1 64 64v896a64 64 0 0 1-64 64z m552.928-339.2l198.08 198.064a47.632 47.632 0 0 0 33.952 14.048 47.568 47.568 0 0 0 33.92-14.048 47.632 47.632 0 0 0 14.064-33.936 47.696 47.696 0 0 0-14.064-33.952L684.8 616.88a317.6 317.6 0 0 0 62.4-189.776 318.048 318.048 0 0 0-25.168-124.56 319.184 319.184 0 0 0-68.56-101.728 319.12 319.12 0 0 0-101.712-68.576A318.128 318.128 0 0 0 427.2 107.072a317.952 317.952 0 0 0-124.56 25.168 318.848 318.848 0 0 0-101.712 68.576 318.848 318.848 0 0 0-68.592 101.728A318 318 0 0 0 107.2 427.104a317.888 317.888 0 0 0 25.136 124.56 318.784 318.784 0 0 0 68.592 101.712 318.768 318.768 0 0 0 101.712 68.592 317.792 317.792 0 0 0 124.56 25.136A317.632 317.632 0 0 0 616.976 684.8z m-332.016-121.744A206.624 206.624 0 0 1 224 416a206.64 206.64 0 0 1 60.896-147.088A206.736 206.736 0 0 1 432 208a206.688 206.688 0 0 1 147.088 60.928A206.672 206.672 0 0 1 640 416a206.64 206.64 0 0 1-60.928 147.088A206.656 206.656 0 0 1 432 624a206.656 206.656 0 0 1-147.088-60.912z m83.808-237.504v126.608a27.2 27.2 0 0 0 27.12 27.12h126.608a27.2 27.2 0 0 0 27.2-27.12 27.2 27.2 0 0 0-27.2-27.2h-99.472v-99.472a27.2 27.2 0 0 0-27.2-27.2 27.2 27.2 0 0 0-27.056 27.296z" fill="#ffffff" p-id="37644"></path></svg>