<svg t="1700030936317" class="icon" viewBox="0 0 1024 1024" version="1.1" xmlns="http://www.w3.org/2000/svg" p-id="3678" width="16" height="16"><path d="M805.12 764.56a46.24 46.24 0 1 0 46.16 46.24 45.76 45.76 0 0 0-46.16-46.24z" p-id="3679" fill="#ffffff"></path><path d="M808 592a216 216 0 1 0 216 216 216 216 0 0 0-216-216z m136 208v16a20.16 20.16 0 0 1-18.4 20.4l-22.24 1.84c-1.84 3.68-3.68 9.2-5.52 12.96l14.8 18.48a22.24 22.24 0 0 1-1.84 27.76l-12.96 12.96a20.16 20.16 0 0 1-27.68 1.76l-18.48-14.72a95.36 95.36 0 0 1-12.96 5.52l-1.84 22.24A18.96 18.96 0 0 1 816 944h-16.48a20.24 20.24 0 0 1-20.32-18.48l-1.84-22.24c-3.76-1.84-9.28-3.68-12.96-5.52l-18.48 14.72a22.24 22.24 0 0 1-27.68-1.76l-12.96-12.96a20.16 20.16 0 0 1-1.84-27.76l14.8-18.48a85.68 85.68 0 0 1-5.6-12.96l-22.16-1.92A18.96 18.96 0 0 1 672 816v-16a20.08 20.08 0 0 1 18.48-20.32l22.16-1.92c1.84-3.68 3.68-9.2 5.6-12.88l-14.8-18.56a22.24 22.24 0 0 1 1.84-27.76l12.96-12.96a19.68 19.68 0 0 1 25.76-2.08l18.48 14.72c5.52-1.76 9.28-3.68 14.8-5.52l1.84-22.24A18.96 18.96 0 0 1 799.52 672h18.48a20.16 20.16 0 0 1 20.32 18.48l1.92 22.24a91.12 91.12 0 0 1 12.96 5.52l18.4-14.72a22.32 22.32 0 0 1 27.76 1.76l12.64 12.96a20.24 20.24 0 0 1 1.84 27.76l-14.8 18.56a89.68 89.68 0 0 1 5.52 12.88l22.16 1.92A18.32 18.32 0 0 1 944 800z" p-id="3680" fill="#ffffff"></path><path d="M736 0H288a80 80 0 0 0-80 80v864H40a40 40 0 0 0 0 80h565.76A296 296 0 0 1 808 512h8V80A80 80 0 0 0 736 0zM448 720H336V608h112z m0-240H336V368h112z m0-240H336V128h112z m240 240H576V368h112z m0-240H576V128h112z" p-id="3681" fill="#ffffff"></path></svg>