<svg t="1733297418075" class="icon" viewBox="0 0 1024 1024" version="1.1" xmlns="http://www.w3.org/2000/svg" p-id="9361" width="16" height="16"><path d="M602.88 512l271.36-271.36c25.6-25.6 25.6-65.28 0-90.88-25.6-25.6-65.28-25.6-90.88 0L512 421.12 240.64 149.76c-25.6-25.6-65.28-25.6-90.88 0-25.6 25.6-25.6 65.28 0 90.88L421.12 512 149.76 783.36c-25.6 25.6-25.6 65.28 0 90.88 25.6 25.6 65.28 25.6 90.88 0L512 602.88l271.36 271.36c25.6 25.6 65.28 25.6 90.88 0 25.6-25.6 25.6-65.28 0-90.88L602.88 512z" fill="#FD023E" p-id="9362"></path></svg>