<svg t="1700034609392" class="icon" viewBox="0 0 1024 1024" version="1.1" xmlns="http://www.w3.org/2000/svg" p-id="26847" width="16" height="16"><path d="M1024 495.213115h-50.360656v369.311475h50.360656v83.934426H495.213115a41.967213 41.967213 0 0 1 0-83.934426H587.540984v-369.311475h-83.934427v167.868852a50.360656 50.360656 0 0 1-50.360655 50.360656H285.377049v235.016393a33.57377 33.57377 0 0 1-67.147541 0v-235.016393H50.360656a50.360656 50.360656 0 0 1-50.360656-50.360656v-570.754098a50.360656 50.360656 0 0 1 50.360656-50.360656h402.885246a50.360656 50.360656 0 0 1 50.360655 50.360656v318.95082h520.393443v83.934426z m-570.754098-369.311476a33.57377 33.57377 0 0 0-33.573771-33.57377H83.934426a33.57377 33.57377 0 0 0-33.57377 33.57377v453.245902a33.57377 33.57377 0 0 0 33.57377 33.57377h335.737705a33.57377 33.57377 0 0 0 33.573771-33.57377v-453.245902z m235.016393 369.311476h-83.934426v369.311475h83.934426v-369.311475z m83.934426 0h-67.147541v369.311475h67.147541v-369.311475z m100.721312 0h-83.934426v369.311475h83.934426v-369.311475z m83.934426 0h-67.147541v369.311475h67.147541v-369.311475z m-697.562229-88.01364h-41.799345v132.784263H136.343082V159.072525h131.072q142.134557 0 142.134557 120.496262a115.342689 115.342689 0 0 1-42.907278 93.805115 157.410623 157.410623 0 0 1-107.352131 33.825573z m-5.908984-185.159344h-35.890361v122.947148h35.168525q71.562492 0 71.562492-62.212197 0-60.751738-70.823869-60.751738z" p-id="26848" fill="#ffffff"></path></svg>