<svg t="1700036185003" class="icon" viewBox="0 0 1028 1024" version="1.1" xmlns="http://www.w3.org/2000/svg" p-id="39962" width="16" height="16"><path d="M992 697.6H32c-19.2 0-32 12.8-32 32v211.2c0 19.2 12.8 32 32 32h953.6c19.2 0 32-12.8 32-32v-211.2c6.4-19.2-6.4-32-25.6-32zM153.6 908.8h-57.6v-147.2h57.6v147.2z m128 0h-57.6v-147.2h57.6v147.2z m563.2-6.4c-38.4 0-70.4-32-70.4-70.4s32-64 70.4-64 70.4 32 70.4 64c0 44.8-32 70.4-70.4 70.4z m147.2-531.2H32c-19.2 0-32 12.8-32 32v211.2c0 19.2 12.8 32 32 32h953.6c19.2 0 32-12.8 32-32V403.2c6.4-19.2-6.4-32-25.6-32zM153.6 582.4h-57.6V435.2h57.6v147.2z m128 0h-57.6V435.2h57.6v147.2z m563.2-6.4c-38.4 0-70.4-32-70.4-70.4s32-64 70.4-64 70.4 32 70.4 64S883.2 576 844.8 576zM992 44.8H32C12.8 44.8 0 64 0 83.2v211.2c0 19.2 12.8 32 32 32h953.6c19.2 0 32-12.8 32-32V76.8c6.4-12.8-6.4-32-25.6-32zM153.6 256h-57.6V108.8h57.6V256z m128 0h-57.6V108.8h57.6V256z m563.2-6.4c-38.4 0-70.4-32-70.4-70.4s32-64 70.4-64 70.4 32 70.4 64-32 70.4-70.4 70.4z" fill="#ffffff" p-id="39963"></path><path d="M742.4 576c12.8-19.2 38.4-19.2 51.2 0l230.4 390.4c12.8 19.2 0 51.2-32 51.2H531.2c-19.2 0-38.4-32-32-51.2L742.4 576z" fill="#ffffff" p-id="39964"></path><path d="M761.6 972.8c-19.2 0-38.4-19.2-38.4-38.4s19.2-38.4 38.4-38.4 38.4 19.2 38.4 38.4c0 25.6-19.2 38.4-38.4 38.4m0-83.2c-6.4 0-12.8-6.4-19.2-38.4l-19.2-140.8c0-19.2 19.2-38.4 38.4-38.4s38.4 19.2 38.4 38.4l-19.2 140.8c-6.4 32-12.8 38.4-19.2 38.4z" fill="#ffffff" p-id="39965"></path></svg>