<svg t="1733276580210" class="icon" viewBox="0 0 1024 1024" version="1.1" xmlns="http://www.w3.org/2000/svg" p-id="6633" width="16" height="16"><path d="M512 102.4C286.208 102.4 102.4 286.208 102.4 512s183.808 409.6 409.6 409.6 409.6-183.808 409.6-409.6-183.808-409.6-409.6-409.6z m0-102.4c282.3168 0 512 229.6832 512 512s-229.6832 512-512 512-512-229.6832-512-512 229.6832-512 512-512z m42.7008 597.2992a42.7008 42.7008 0 1 1-85.4016 0V256a42.7008 42.7008 0 1 1 85.4016 0v341.2992zM512 810.7008a42.7008 42.7008 0 1 1 0-85.4016 42.7008 42.7008 0 0 1 0 85.4016z" fill="#2c2c2c" p-id="6634"></path></svg>