<svg t="1700033804505" class="icon" viewBox="0 0 1024 1024" version="1.1" xmlns="http://www.w3.org/2000/svg" p-id="22438" width="16" height="16"><path d="M450.245658 168.949058l23.71494-11.81768 23.55578 11.81768-4.018807-27.574587 15.796698-19.735924-23.595571-3.899437-11.7381-23.67515-11.93705 23.67515-23.55578 3.899437 15.756907 19.735924-3.979017 27.574587zM241.546221 255.572256v23.55578c0 39.392267 106.239751 70.906081 232.414377 70.906081 129.914902 0 232.215426-31.513814 232.215427-70.906081v-19.616554c-51.090577-15.756907-141.732582-27.534797-244.152477-27.534797-86.543618 0-169.307169 7.798873-220.477327 23.595571zM198.254517 168.949058c15.717117 31.513814 43.291704 74.805518 43.291704 74.805517v3.819857c55.149174-11.77789 133.933709-19.576763 224.456344-19.576763 102.419895 0 189.082883 11.7381 244.192267 27.534797v-15.756907s27.574587-43.291704 43.251914-74.805518c7.878453-15.756907 11.81768-35.41325 15.796697-47.230931 0-11.897261-7.958034-19.735924-19.735924-27.614377-39.352477-15.677327-129.954692-55.149174-165.367943-70.945872a96.371789 96.371789 0 0 0-35.53262-7.759082H473.960598 399.0755c-11.77789 0-27.534797 3.979017-35.532621 7.759082-35.33367 15.796697-125.975675 55.268545-165.288362 70.945872-11.81768 7.878453-19.735924 15.717117-19.735924 27.614377 3.939227 15.677327 11.77789 31.474024 19.735924 51.209948z m224.456344-102.419895s11.77789 3.979017 23.67515 3.979017c11.77789 0 27.574587-11.77789 27.574587-11.777891s15.756907 11.77789 27.534797 11.777891c11.77789 0 23.55578-3.979017 23.55578-3.979017l19.775714 27.534797s-11.937051 7.918244-11.93705 19.735923c0 19.576763 7.918244 15.756907 7.918243 43.331495 0 35.33367-70.866291 55.069594-70.866291 55.069593s-70.866291-15.717117-70.866291-55.069593c4.018807-27.574587 15.756907-23.754731 15.756907-43.331495 0-7.958034-11.7381-19.735924-11.7381-19.735923l19.616554-27.534797z m234.483466 649.534719c-23.59557-11.77789-80.933204-43.013173-80.933204-50.971207V609.983291s122.076239-98.440878 122.076239-263.80882v-23.714941c-27.534797 31.513814-118.137012 51.289528-224.376764 51.289528-106.398912 0-193.0619-23.714941-224.615504-51.289528V346.174471c0 165.367942 122.155819 263.808821 122.155819 263.80882v55.109384c0 11.77789-23.714941 23.714941-43.331494 31.513814C79.998135 739.937983 36.746221 873.911482 36.746221 897.507053c11.81768 90.562425 370.088362 98.440878 429.216553 98.440878-11.77789-31.553604-31.513814-94.501651-31.513813-181.12485 0-31.553604 39.511638-31.553604 39.511637-31.553604s39.312687 0 39.312687 31.553604c0 86.623198-19.775714 149.531455-31.513813 181.12485 55.149174 0 145.552438-4.81461 211.166427-39.511638-17.746415-15.717117-122.951622-86.304877-35.731572-240.372411z m-187.252536 67.165805c-23.55578 0-43.291704-19.696134-43.291704-39.352477 0-23.714941 19.735924-39.432058 43.291704-39.432057s43.331494 19.696134 43.331494 39.432057c0 19.656344-19.735924 39.352477-43.331494 39.352477z" p-id="22439" fill="#ffffff"></path><path d="M763.235127 656.060307c-88.891238 0-161.229765 72.298737-161.229765 161.229765s72.298737 161.229765 161.229765 161.229765 161.229765-72.298737 161.229765-161.229765-72.338527-161.229765-161.229765-161.229765z m0 295.561376a134.490771 134.490771 0 0 1-134.33161-134.331611 134.490771 134.490771 0 0 1 134.33161-134.331611 134.490771 134.490771 0 0 1 134.331611 134.331611 134.490771 134.490771 0 0 1-134.331611 134.331611z m62.430775-94.819973l-55.706236-32.230037v-87.896484a13.409287 13.409287 0 0 0-26.898154 0v94.06396c0 4.973771 6.207266 9.151739 10.226073 11.459569 1.153915 1.671187 4.177968 3.223004 6.048106 4.297338l55.427705 33.582903c6.406217 3.700486 13.369497 1.512026 17.109773-4.933981 3.700486-6.406217 0.238741-14.642782-6.207267-18.343268z" p-id="22440" fill="#ffffff"></path></svg>