<svg t="1700032378927" class="icon" viewBox="0 0 1024 1024" version="1.1" xmlns="http://www.w3.org/2000/svg" p-id="13072" width="16" height="16"><path d="M496.9 603.6m-85.3 0a85.3 85.3 0 1 0 170.6 0 85.3 85.3 0 1 0-170.6 0Z" p-id="13073" fill="#ffffff"></path><path d="M810.7 192h-85.3c0-23.5-19.2-42.7-42.7-42.7-23.5 0-42.7 19.2-42.7 42.7H384c0-23.5-19.2-42.7-42.7-42.7-23.5 0-42.7 19.2-42.7 42.7h-85.3c-46.9 0-85.3 38.4-85.3 85.3v512c0 46.9 38.4 85.3 85.3 85.3h597.3c46.9 0 85.3-38.4 85.3-85.3v-512c0.1-46.9-38.3-85.3-85.2-85.3zM685.3 791.9c-16.6 16.6-43.7 16.6-60.3 0l-41.8-41.8c-25.4 15-54.6 24.1-86.2 24.1-94.3 0-170.7-76.4-170.7-170.7 0-94.3 76.4-170.7 170.7-170.7s170.7 76.4 170.7 170.7c0 31.6-9.2 60.8-24.1 86.2l41.8 41.8c16.5 16.7 16.5 43.9-0.1 60.4zM768 362.7H256c-23.5 0-42.7-19.2-42.7-42.7s19.2-42.7 42.7-42.7h42.7c0 23.5 19.2 42.7 42.7 42.7 23.5 0 42.7-19.2 42.7-42.7h256c0 23.5 19.2 42.7 42.7 42.7 23.5 0 42.7-19.2 42.7-42.7H768c23.5 0 42.7 19.2 42.7 42.7s-19.2 42.7-42.7 42.7z" p-id="13074" fill="#ffffff"></path></svg>