<svg t="1700034844654" class="icon" viewBox="0 0 1024 1024" version="1.1" xmlns="http://www.w3.org/2000/svg" p-id="30658" width="16" height="16"><path d="M913.694213 576.005391c64.005391 0 96.008087-191.929913 0-191.929913h-191.929913c191.929913-319.983826 53.00716-383.989217 0-383.989217 0 162.558167-239.07135 343.727066-479.997305 415.991913v511.849044H177.696908V415.991913h64.005392v-32.002696H113.691517c-35.194339 0-63.983826 43.130318-63.983826 96.008087v384.010783c0 52.791509 28.789487 95.986522 63.983826 95.986522h128.010783v-32.067391c272.734563 28.336619 177.653778 95.986522 447.994608 95.986521 64.005391 0 127.989217-32.002696 127.989218-95.986521 64.005391 0 96.008087-160.013478 64.005391-160.013479 64.005391 0.086261 105.000758-191.908348 32.002696-191.908348z m-216.729846 164.024598a20.594727 20.594727 0 0 1 0 29.091399l-0.452868 0.452869a20.573161 20.573161 0 0 1-29.112965 0l-108.602139-108.60214-108.623705 108.60214a20.551596 20.551596 0 0 1-29.091399 0l-0.452869-0.452869a20.551596 20.551596 0 0 1 0-29.091399l108.60214-108.623705L420.628422 522.804145a20.573161 20.573161 0 0 1 0-29.112965l0.452869-0.452868a20.594727 20.594727 0 0 1 29.091399 0l108.623705 108.60214 108.602139-108.60214a20.616292 20.616292 0 0 1 29.112965 0l0.452868 0.452868a20.616292 20.616292 0 0 1 0 29.112965l-108.60214 108.602139z" p-id="30659" fill="#ffffff"></path></svg>