<svg t="1700036110894" class="icon" viewBox="0 0 1228 1024" version="1.1" xmlns="http://www.w3.org/2000/svg" p-id="36520" width="16" height="16"><path d="M1105.8688 0c67.84 0 122.88 57.344 122.88 128L1228.8 576c-56.064-77.7216-145.3056-128-245.76-128-108.7488 0-204.2368 58.7776-258.816 147.456a90.7264 90.7264 0 0 0-79.7184-48.5376c-29.2864 0-55.3984 14.336-72.192 36.6592l-4.3008 6.2976-57.8048-71.936c73.472-14.0288 129.1776-81.0496 129.1776-161.6384l-0.3584-11.008-1.024-10.752 59.4432-10.496 4.7104-1.5872a34.9696 34.9696 0 0 0 19.3536-40.3456 33.28 33.28 0 0 0-35.3792-25.9584l-4.864 0.8704-66.1504 11.6736c-27.9552-46.08-77.312-76.6976-133.4272-76.6976-71.7824 0-132.3008 49.8688-151.4496 118.1696l-2.2528 9.0112-44.032 7.7824-4.7104 1.5872a34.9696 34.9696 0 0 0-19.4048 40.3456 33.28 33.28 0 0 0 35.4304 25.9584l4.864-0.8704 26.9824-4.7104c2.2528 11.4176 5.632 22.3744 10.0352 32.768a383.232 383.232 0 0 0-214.016 329.8304l-0.256 14.1312v73.3696l0.3072 5.2224a41.472 41.472 0 0 0 35.4816 35.84l5.632 0.4096h248.5248a46.7456 46.7456 0 0 0 46.4384-41.2672l0.3072-5.4272v-112.64a11.6736 11.6736 0 0 1 18.176-9.6768l2.3552 2.048 26.3168 30.5152a62.464 62.464 0 0 0 89.3952 5.2736l4.7616-4.864 0.3584-0.4096c20.1728-22.9376 26.112-54.0672 17.7152-81.92l0.4608-3.328 0.1536-3.4816v-13.312l0.4096-4.7616a25.6 25.6 0 0 1 24.832-21.5552 25.6 25.6 0 0 1 24.832 21.504l0.4096 4.7616v91.136l0.3584 5.0688c0.8192 5.632 2.9184 10.752 5.9904 15.2064a384.4096 384.4096 0 0 0-0.3072 14.2336c0 104.704 48.2816 197.632 122.9312 256.0512l-675.84-0.0512c-67.8912 0-122.88-57.344-122.88-128v-768C0 57.344 54.9888 0 122.88 0h982.9888z m-122.88 512c135.68 0 245.76 114.5856 245.76 256 0 141.312-110.08 255.9488-245.76 255.9488s-245.76-114.6368-245.76-256 110.08-256 245.76-256z m130.56 139.2128l-184.5248 194.2016-80.9472-82.7904a38.8096 38.8096 0 0 0-56.4736 0.512 42.8544 42.8544 0 0 0 0.512 58.88l109.312 111.8208a38.8096 38.8096 0 0 0 56.3712-0.4096l212.48-223.744a42.8544 42.8544 0 0 0-0.256-58.7776 38.8096 38.8096 0 0 0-56.5248 0.3072z" fill="#ffffff" p-id="36521"></path></svg>