<svg t="1733276496514" class="icon" viewBox="0 0 1024 1024" version="1.1" xmlns="http://www.w3.org/2000/svg" p-id="5331" width="16" height="16"><path d="M512 622.933333m-245.76 0a245.76 245.76 0 1 0 491.52 0 245.76 245.76 0 1 0-491.52 0Z" fill="#333333" opacity=".3" p-id="5332"></path><path d="M805.546667 989.866667H218.453333c-51.2 0-93.866667-42.666667-93.866666-93.866667v-768c0-51.2 42.666667-93.866667 93.866666-93.866667h452.266667c6.826667 0 13.653333 3.413333 18.773333 8.533334l203.093334 226.986666c3.413333 5.12 6.826667 10.24 6.826666 17.066667v610.986667c0 49.493333-42.666667 92.16-93.866666 92.16zM218.453333 85.333333c-23.893333 0-42.666667 18.773333-42.666666 42.666667v768c0 23.893333 18.773333 42.666667 42.666666 42.666667h587.093334c23.893333 0 42.666667-18.773333 42.666666-42.666667V295.253333L658.773333 85.333333H218.453333z" fill="#333333" p-id="5333"></path><path d="M443.733333 786.773333h-90.453333c-13.653333 0-25.6-11.946667-25.6-25.6v-90.453333c0-6.826667 3.413333-13.653333 6.826667-18.773333L561.493333 426.666667c10.24-10.24 25.6-10.24 35.84 0l90.453334 90.453333c5.12 5.12 6.826667 11.946667 6.826666 18.773333s-3.413333 13.653333-6.826666 18.773334L462.506667 778.24c-5.12 5.12-11.946667 8.533333-18.773334 8.533333z m-64.853333-51.2h54.613333l201.386667-201.386666-54.613333-54.613334-201.386667 201.386667v54.613333zM873.813333 310.613333H648.533333c-13.653333 0-25.6-11.946667-25.6-25.6V59.733333c0-13.653333 10.24-25.6 25.6-25.6s25.6 11.946667 25.6 25.6v201.386667h201.386667c13.653333 0 25.6 11.946667 25.6 25.6-1.706667 13.653333-13.653333 23.893333-27.306667 23.893333z" fill="#333333" p-id="5334"></path></svg>