<svg t="1733276484142" class="icon" viewBox="0 0 1024 1024" version="1.1" xmlns="http://www.w3.org/2000/svg" p-id="5135" width="16" height="16"><path d="M716.8 754.346667H225.28c-37.546667 0-68.266667-30.72-68.266667-68.266667V128c0-37.546667 30.72-68.266667 68.266667-68.266667H716.8c37.546667 0 68.266667 30.72 68.266667 68.266667v558.08c0 39.253333-30.72 68.266667-68.266667 68.266667z" fill="#333333" opacity=".3" p-id="5136"></path><path d="M805.546667 989.866667h-124.586667c-13.653333 0-25.6-11.946667-25.6-25.6s11.946667-25.6 25.6-25.6h124.586667c23.893333 0 42.666667-18.773333 42.666666-42.666667V715.093333c0-13.653333 11.946667-25.6 25.6-25.6s25.6 11.946667 25.6 25.6v180.906667c0 51.2-42.666667 93.866667-93.866666 93.866667zM331.093333 989.866667h-112.64c-51.2 0-93.866667-42.666667-93.866666-93.866667v-768c0-51.2 42.666667-93.866667 93.866666-93.866667h587.093334c51.2 0 93.866667 42.666667 93.866666 93.866667v203.093333c0 13.653333-11.946667 25.6-25.6 25.6s-25.6-11.946667-25.6-25.6V128c0-23.893333-18.773333-42.666667-42.666666-42.666667H218.453333c-23.893333 0-42.666667 18.773333-42.666666 42.666667v768c0 23.893333 18.773333 42.666667 42.666666 42.666667h112.64c13.653333 0 25.6 11.946667 25.6 25.6s-11.946667 25.6-25.6 25.6z" fill="#333333" p-id="5137"></path><path d="M648.533333 356.693333H331.093333c-13.653333 0-25.6-11.946667-25.6-25.6s11.946667-25.6 25.6-25.6H648.533333c13.653333 0 25.6 11.946667 25.6 25.6s-11.946667 25.6-25.6 25.6zM489.813333 989.866667c-5.12 0-11.946667-1.706667-15.36-5.12-10.24-8.533333-11.946667-25.6-3.413333-35.84L853.333333 472.746667c8.533333-10.24 25.6-11.946667 35.84-3.413334 10.24 8.533333 11.946667 25.6 3.413334 35.84L508.586667 979.626667c-5.12 6.826667-11.946667 10.24-18.773334 10.24zM512 537.6H331.093333c-13.653333 0-25.6-11.946667-25.6-25.6s11.946667-25.6 25.6-25.6H512c13.653333 0 25.6 11.946667 25.6 25.6s-11.946667 25.6-25.6 25.6z" fill="#333333" p-id="5138"></path></svg>