<svg t="1714215447305" class="icon" viewBox="0 0 1024 1024" version="1.1" xmlns="http://www.w3.org/2000/svg" p-id="7792" width="16" height="16"><path d="M992.995556 577.422222l-85.333334-91.875555a85.333333 85.333333 0 0 0-62.293333-27.022223H768a14.791111 14.791111 0 0 0-14.791111 15.075556v316.302222a14.791111 14.791111 0 0 0 14.791111 14.791111h28.444444a15.075556 15.075556 0 0 0 14.222223-12.231111 81.92 81.92 0 0 1 162.702222 0 15.075556 15.075556 0 0 0 14.222222 12.231111 14.791111 14.791111 0 0 0 14.791111-14.791111v-182.044444a42.097778 42.097778 0 0 0-11.662222-28.444445zM954.88 625.777778a14.791111 14.791111 0 0 1-14.222222 14.791111h-121.742222a14.791111 14.791111 0 0 1-15.075556-14.791111v-102.4a14.791111 14.791111 0 0 1 15.075556-14.791111H824.888889a85.333333 85.333333 0 0 1 60.871111 25.884444L946.631111 597.333333a28.444444 28.444444 0 0 1 8.248889 19.911111z m0 0" p-id="7793" fill="#ffffff"></path><path d="M892.017778 750.648889a56.888889 56.888889 0 0 1 53.76 34.702222 56.888889 56.888889 0 1 1-53.76-34.702222z m-430.648889 0a56.888889 56.888889 0 0 1 41.528889 97.564444 56.888889 56.888889 0 0 1-97.564445-41.244444 56.888889 56.888889 0 0 1 56.888889-56.888889z m0 0" p-id="7794" fill="#ffffff"></path><path d="M354.133333 689.208889v87.893333a26.168889 26.168889 0 0 0 26.453334 26.453334 81.92 81.92 0 0 1 162.986666-12.231112 15.075556 15.075556 0 0 0 14.791111 12.231112h167.253334a28.444444 28.444444 0 0 0 20.195555-8.248889 28.444444 28.444444 0 0 0 8.248889-20.48v-85.333334z m0 0" p-id="7795" fill="#ffffff"></path><path d="M356.124444 410.737778m20.764445 0l331.093333 0q20.764444 0 20.764445 20.764444l0 220.728889q0 20.764444-20.764445 20.764445l-331.093333 0q-20.764444 0-20.764445-20.764445l0-220.728889q0-20.764444 20.764445-20.764444Z" p-id="7796" fill="#ffffff"></path><path d="M194.275556 590.222222a18.773333 18.773333 0 0 1-6.542223 14.222222l-64.284444 56.888889a18.773333 18.773333 0 0 1-12.8 4.835556 19.342222 19.342222 0 0 1-19.342222-19.057778 18.773333 18.773333 0 0 1 6.542222-14.222222l26.737778-24.177778h-85.333334a19.342222 19.342222 0 0 1 0-38.4h85.333334l-26.737778-24.177778a18.773333 18.773333 0 0 1-6.542222-14.222222 19.342222 19.342222 0 0 1 19.342222-19.057778 18.204444 18.204444 0 0 1 12.8 4.835556l64.284444 56.888889a19.911111 19.911111 0 0 1 6.542223 14.506666M19.342222 348.444444l768-167.822222 13.368889 77.084445-768 168.96z m0 0" p-id="7797" fill="#ffffff"></path><path d="M243.768889 321.422222h43.235555v543.573334H243.768889z" p-id="7798" fill="#ffffff"></path></svg>