<svg t="1733276133256" class="icon" viewBox="0 0 1024 1024" version="1.1" xmlns="http://www.w3.org/2000/svg" p-id="1663" width="16" height="16"><path d="M472.233809 628.793006c0-97.550757 53.358255-182.460612 132.369774-227.638557H209.611483l51.215452-134.406152c6.40078-19.192108 15.999392-33.102932 38.453801-33.319873h358.550119c22.36231 0.216941 31.968086 14.127765 38.372959 33.319873l38.034245 99.821473c0.078795 0 0.149403-0.016373 0.230243-0.016373 25.105794 0 49.312102 3.734044 72.30784 10.339486l-56.905035-145.351436c-12.803607-33.102932-40.529065-61.377906-92.868107-61.377906H300.021609c-52.269457 0-80.020498 28.278043-92.783173 61.377906l-68.039629 173.709297c-26.997887 3.425006-74.724889 34.760688-74.724888 94.104261v221.016743h76.516697V775.392876c0 86.932931 103.566774 85.935208 103.566774 0v-55.020105H489.000682c-10.662851-28.545126-16.766872-59.316967-16.766873-91.579765z m-241.195317-42.256406c-32.400944 0-58.710147-26.77276-58.710147-59.846016 0-33.104979 26.309202-59.870576 58.710147-59.870576 32.400944 0 58.682517 26.768667 58.682517 59.870576 0.00307 33.073256-26.281573 59.846016-58.682517 59.846016z" fill="" p-id="1664"></path><path d="M734.492862 403.714761c-124.078946 0-225.088478 100.952226-225.088478 225.088478 0 124.103506 101.009532 225.032196 225.088478 225.032197 124.107599-0.004093 225.032196-100.92869 225.032196-225.032197 0-124.136252-100.924597-225.088478-225.032196-225.088478z m0 397.147183c-94.89016 0-172.065867-77.174684-172.065868-172.059728 0-94.89016 77.175707-172.038238 172.065868-172.038238 94.913697 0 172.035168 77.148078 172.035168 172.038238 0 94.885044-77.121472 172.059728-172.035168 172.059728z" fill="" p-id="1665"></path><path d="M734.117308 746.332003c-11.888771 0-21.568225-8.7902-21.568224-19.540032v-26.688849h-49.278334c-11.669784 0-21.13332-9.05933-21.133319-20.165272 0-10.785647 9.463536-19.541055 21.133319-19.541055h49.278334v-12.133342h-49.278334c-12.048407 0-21.13332-8.679683-21.133319-20.159132 0-10.597359 9.463536-19.25146 21.133319-19.251459h32.70282l-42.325991-68.171636c-2.775206-3.798513-3.743254-9.188266-2.316765-14.229073 1.617847-5.691629 6.15007-10.432607 12.429077-13.023618a23.137976 23.137976 0 0 1 8.67559-1.647523c7.630794 0 14.748912 3.50994 18.5771 9.109472l43.772946 70.331835 43.264363-70.2469c3.858888-6.065136 10.920724-9.733689 18.442024-9.733689 3.394307 0 6.713912 0.784876 9.648755 2.266623 5.445012 2.077312 9.543354 6.17463 11.350512 11.320837 1.830695 5.231141 1.128707 10.945283-1.940189 15.687284l-4.558829 7.088442-37.712926 61.248969h31.999808c11.888771 0 21.538549 8.919137 21.538549 19.869537 0 10.940167-9.459442 19.542078-21.538549 19.542078h-49.273217v12.130272h49.273217c12.079106 0 21.538549 8.838296 21.538549 20.164248 0 10.591219-9.863648 19.540032-21.538549 19.540032h-49.273217v26.688849c-0.001023 10.94426-9.624195 19.543102-21.88852 19.543102z" fill="" p-id="1666"></path></svg>