<svg t="1733276640714" class="icon" viewBox="0 0 1024 1024" version="1.1" xmlns="http://www.w3.org/2000/svg" p-id="9537" width="16" height="16"><path d="M832 226.3V128h96v-64H96v64h96v98.3c0.6 84.6 33.8 164.1 93.7 223.9 25.6 25.6 54.8 46.3 86.5 61.7-31.6 15.4-60.8 36.1-86.5 61.7-59.9 59.9-93.1 139.3-93.7 223.9V896h-96v64h832v-64h-96v-98.3c-0.6-84.6-33.8-164.1-93.7-223.9-25.6-25.6-54.8-46.3-86.5-61.7 31.6-15.4 60.8-36.1 86.5-61.7 59.9-60 93.1-139.5 93.7-224.1zM768 800v96H256v-96c0-141.2 114.8-256 256-256s256 114.8 256 256zM512 480C370.8 480 256 365.2 256 224v-96h512v96c0 141.2-114.8 256-256 256z" p-id="9538"></path><path d="M352 256C352 344.2 423.8 416 512 416s160-71.8 160-160v-64H352v64zM672 768c0-88.2-71.8-160-160-160s-160 71.8-160 160v64h320v-64z" p-id="9539"></path></svg>