<svg t="1733275933033" class="icon" viewBox="0 0 1024 1024" version="1.1" xmlns="http://www.w3.org/2000/svg" p-id="5002" width="16" height="16"><path d="M134.357333 381.269333l15.701334 4.266667-22.357334 48.042667h21.333334a33.237333 33.237333 0 0 0-31.786667 23.68l-3.072-0.853334a38.912 38.912 0 0 1 20.138667-75.093333z m755.328 0a38.912 38.912 0 1 1 20.138667 75.178667l-3.072 0.853333a33.237333 33.237333 0 0 0-31.786667-23.722666h21.333334l-22.357334-48.085334 15.786667-4.224z" fill="#2C2C2C" fill-opacity=".6" p-id="5003"></path><path d="M875.008 433.578667c17.194667 0 31.530667 13.141333 33.066667 30.250666l0.512 5.802667c-18.858667 0.213333-24.106667 3.754667-52.821334 46.506667-7.893333 10.965333-14.421333 20.906667-19.84 29.866666l-0.597333-0.256-10.154667-2.474666c-73.301333-17.322667-116.906667-9.130667-130.986666 24.490666-24.704 59.264 44.928 71.978667 85.333333 60.032 9.941333-2.944 20.181333-8.106667 30.72-15.616a96.682667 96.682667 0 0 0-0.170667 6.314667c4.565333 27.904 13.824 30.890667 32.128 47.232 18.261333 25.6-6.997333 40.874667-34.005333 63.829333a66.432 66.432 0 0 1-29.952 14.506667h-27.690667a19.328 19.328 0 0 1-8.405333-3.498667c-29.653333-44.16-40.661333-38.4-61.226667-40.704-20.608-2.346667-29.738667 2.304-89.088 39.509334l-7.04 4.650666H246.528A142.421333 142.421333 0 0 1 104.661333 588.8l11.306667-124.970667a33.237333 33.237333 0 0 1 33.066667-30.250666h725.973333z m-239.786667 156.672h-226.986666l-2.986667 0.128a26.282667 26.282667 0 0 0 2.986667 52.394666h226.986666l3.029334-0.170666a26.282667 26.282667 0 0 0-3.072-52.352zM208.682667 541.013333l-9.813334 2.218667-10.154666 2.56-3.541334 1.194667a20.778667 20.778667 0 0 0-6.784 32.725333c23.253333 25.941333 45.269333 41.941333 66.133334 48.085333 40.362667 11.946667 110.037333-0.768 85.290666-60.032-13.397333-32.128-53.76-41.045333-121.173333-26.752z" fill="#2C2C2C" p-id="5004"></path><path d="M713.514667 144.384c32.768 0 62.506667 19.242667 75.861333 49.194667l107.008 240H127.701333l112.426667-241.237334a83.029333 83.029333 0 0 1 75.264-47.957333h398.08z m-36.096 52.224H350.72c-22.613333 0-43.648 11.605333-55.765333 30.72l-2.901334 5.162667-69.504 148.906666h580.096L737.706667 235.690667a66.005333 66.005333 0 0 0-51.712-38.570667l-5.973334-0.426667-2.602666-0.128z" fill="#2C2C2C" fill-opacity=".6" p-id="5005"></path><path d="M674.688 236.032l3.456 0.213333a26.581333 26.581333 0 0 1 19.2 12.458667l1.664 3.072 40.149333 90.154667H281.685333l42.197334-90.538667 1.664-3.029333c4.224-6.698667 11.221333-11.093333 19.029333-12.117334l3.413333-0.213333h110.122667l-0.256 2.901333v10.965334c0 11.477333 9.301333 20.736 20.778667 20.736h63.573333a20.778667 20.778667 0 0 0 20.736-20.736v-11.008a20.906667 20.906667 0 0 0-0.170667-2.901334h111.914667z" fill="#2C2C2C" fill-opacity=".2" p-id="5006"></path><path d="M106.965333 627.285333a145.749333 145.749333 0 0 0 142.805334 116.736h7.978666v59.136a41.514667 41.514667 0 0 1-41.514666 41.557334H141.824a41.514667 41.514667 0 0 1-41.514667-41.557334v-175.914666h6.656z" fill="#2C2C2C" fill-opacity=".4" p-id="5007"></path><path d="M677.632 776.106667c35.626667-22.4 41.130667-25.173333 53.461333-23.808 12.373333 1.408 16.469333 4.224 34.261334 30.72 2.730667 2.773333 26.026667 40.490667 112.384-43.264 63.061333-67.072 43.861333-90.752 32.853333-106.154667-10.965333-9.813333-21.930667-15.36-24.661333-32.085333 0-8.362667 1.365333-25.173333 27.434666-61.44 17.834667-26.496 20.565333-27.904 32.853334-27.904 11.008-1.408 30.165333 5.546667 49.365333 20.949333 19.2 12.586667 24.704 27.946667 27.392 46.08 2.730667 22.357333 6.826667 99.114667-87.722667 205.226667-94.549333 106.112-216.533333 129.877333-260.394666 99.114666-17.834667-13.952-32.853333-43.264-34.261334-61.44-2.730667-13.952 2.773333-23.722667 37.034667-46.08v0.042667z" fill="#000000" p-id="5008"></path></svg>