<svg t="1733276203458" class="icon" viewBox="0 0 1024 1024" version="1.1" xmlns="http://www.w3.org/2000/svg" p-id="2763" width="16" height="16"><path d="M542.72 266.24H215.04c-20.48 0-40.96-15.36-40.96-40.96s15.36-40.96 40.96-40.96h327.68c20.48 0 40.96 15.36 40.96 40.96s-20.48 40.96-40.96 40.96zM440.32 419.84h-204.8c-20.48 0-40.96-15.36-40.96-40.96s15.36-40.96 40.96-40.96h204.8c20.48 0 40.96 15.36 40.96 40.96s-15.36 40.96-40.96 40.96zM675.84 829.44c-20.48 0-40.96-10.24-112.64-102.4-15.36-15.36-10.24-40.96 5.12-56.32 15.36-15.36 40.96-10.24 56.32 5.12 25.6 35.84 46.08 51.2 56.32 66.56 15.36-15.36 51.2-46.08 122.88-117.76 15.36-15.36 40.96-15.36 56.32 0 15.36 15.36 15.36 40.96 0 56.32-153.6 148.48-163.84 148.48-184.32 148.48z m15.36-71.68z m-25.6 0z" fill="#2c2c2c" p-id="2764"></path><path d="M696.32 1013.76c-163.84 0-296.96-133.12-296.96-296.96 0-163.84 133.12-296.96 296.96-296.96 163.84 0 296.96 133.12 296.96 296.96 0 163.84-133.12 296.96-296.96 296.96z m0-512c-117.76 0-215.04 97.28-215.04 215.04s97.28 215.04 215.04 215.04 215.04-97.28 215.04-215.04-92.16-215.04-215.04-215.04z" fill="#2c2c2c" p-id="2765"></path><path d="M307.2 870.4H138.24c-56.32 0-102.4-46.08-102.4-102.4V102.4c0-56.32 46.08-102.4 102.4-102.4h512c56.32 0 102.4 46.08 102.4 102.4v261.12c0 20.48-15.36 40.96-35.84 40.96-20.48 0-35.84-15.36-40.96-35.84V107.52c0-15.36-10.24-25.6-25.6-25.6h-512c-15.36 0-25.6 10.24-25.6 25.6v665.6c0 15.36 10.24 25.6 25.6 25.6h168.96c20.48 0 40.96 15.36 40.96 40.96s-20.48 30.72-40.96 30.72z" fill="#2c2c2c" p-id="2766"></path></svg>