<svg t="1700036039279" class="icon" viewBox="0 0 1024 1024" version="1.1" xmlns="http://www.w3.org/2000/svg" p-id="34247" width="16" height="16"><path d="M823.554 900V770.678H406.295V900H220.697V555.294l61.696-86.044h-31.12c-17.1 0-31.103-14.613-31.103-32.471s14.003-32.471 31.103-32.471h61.696c4.662 0 9.341 1.087 12.965 3.254l80.361-110.937h417.258l79.834 110.937c4.151-2.167 8.303-3.254 12.965-3.254h61.696c17.1 0 31.104 14.613 31.104 32.471s-14.004 32.471-31.104 32.471h-31.104l61.68 86.044V900h-185.07zM303.118 555.294c0 23.806 18.666 43.294 41.482 43.294h61.696c22.8 0 41.466-19.488 41.466-43.294 0-23.821-18.666-43.294-41.466-43.294H344.6c-22.817 0-41.482 19.473-41.482 43.294z m490.37-215.383H432.209L339.411 469.25h547.387l-93.31-129.339zM885.25 512h-61.696c-22.8 0-41.466 19.473-41.466 43.294 0 23.806 18.666 43.294 41.466 43.294h61.696c22.816 0 41.465-19.488 41.465-43.294 0-23.821-18.649-43.294-41.465-43.294zM558.698 242.507h-21.252l22.817 31.927h-54.958c-3.114-1.079-6.738-2.158-10.362-2.158h-42.52c-3.625 0-7.249 1.079-10.362 2.158h-59.109l-86.044 110.937c-4.152-2.166-8.814-3.245-14.003-3.245h-66.358c-18.138 0-39.917 23.813-39.917 42.75 0 8.113 3.114 16.779 7.776 24.349h-48.22v83.334H14.358V301.493l41.993-58.986H35.099c-11.927 0-21.251-9.736-21.251-22.182s9.324-22.191 21.251-22.191h42.503c3.114 0 6.228 1.087 8.814 2.167l54.447-76.3h311.049l54.431 76.3c2.586-1.079 5.7-2.167 8.814-2.167h42.503c11.928 0 21.252 9.745 21.252 22.191 1.038 12.446-8.797 22.182-20.214 22.182zM70.865 301.493c0 16.235 12.455 29.761 28.517 29.761h42.52c15.552 0 28.5-12.981 28.5-29.761 0-16.235-12.438-29.76-28.5-29.76h-42.52c-16.063 0.543-28.517 13.525-28.517 29.76zM432.209 166.75H159.001l-49.769 67.099h376.37l-53.393-67.099z" fill="#ffffff" p-id="34248"></path></svg>