<svg t="1733291875861" class="icon" viewBox="0 0 1024 1024" version="1.1" xmlns="http://www.w3.org/2000/svg" p-id="3290" width="16" height="16"><path d="M844.8 899.657143H182.857143c-21.942857-3.657143-36.571429-18.285714-40.228572-40.228572V354.742857h742.4v504.685714c-3.657143 21.942857-21.942857 36.571429-40.228571 40.228572z m-460.8-252.342857c-21.942857 0-40.228571 18.285714-40.228571 40.228571 0 21.942857 18.285714 40.228571 40.228571 40.228572h80.457143v80.457142c0 21.942857 18.285714 40.228571 40.228571 40.228572 21.942857 0 40.228571-18.285714 40.228572-40.228572v-80.457142h80.457143c21.942857 0 40.228571-18.285714 40.228571-40.228572s-18.285714-40.228571-40.228571-40.228571h-80.457143v-40.228572h80.457143c21.942857 0 40.228571-18.285714 40.228571-40.228571 0-21.942857-18.285714-40.228571-40.228571-40.228572h-65.828572l40.228572-40.228571c7.314286-7.314286 10.971429-18.285714 10.971428-29.257143 0-10.971429-3.657143-21.942857-10.971428-29.257143-7.314286-7.314286-18.285714-10.971429-29.257143-10.971428-10.971429 0-21.942857 3.657143-29.257143 10.971428l-40.228572 40.228572-40.228571-40.228572c-7.314286-7.314286-18.285714-10.971429-29.257143-10.971428-10.971429 0-21.942857 3.657143-29.257143 10.971428-7.314286 7.314286-10.971429 18.285714-10.971428 29.257143 0 10.971429 3.657143 21.942857 10.971428 29.257143l40.228572 40.228571h-65.828572c-21.942857 0-40.228571 18.285714-40.228571 40.228572 0 21.942857 18.285714 40.228571 40.228571 40.228571h80.457143v40.228572h-73.142857z m497.371429-329.142857H138.971429V241.371429c3.657143-21.942857 18.285714-36.571429 40.228571-40.228572h117.028571V124.342857h76.8v76.8h274.285715V124.342857h76.8v76.8H841.142857c29.257143 0 40.228571 29.257143 40.228572 47.542857v69.485715z" fill="#1296db" p-id="3291"></path></svg>