<svg t="1700034718014" class="icon" viewBox="0 0 1024 1024" version="1.1" xmlns="http://www.w3.org/2000/svg" p-id="28980" width="16" height="16"><path d="M656.798152 765.581766v-41.439209h78.640076q-2.534487-10.148595-5.072522-17.748506l39.756651-2.538036q3.368666 10.148595 5.920901 20.297191h73.567554v41.42856h-33.825101v-13.52791h-126.010836v13.52791z m11.004073 116.696421v-113.320655h68.50923v-11.838253h33.825101v11.838253h69.32921v113.313556h-33.012219v-6.765731h-36.345389v31.287065h-33.825101v-31.287065h-35.514758v6.765731z m32.976723-85.409356v12.686631h35.514758v-12.686631z m0 37.207966v13.53146h35.514758v-13.53146z m105.674599-37.215065h-36.345389v12.686631h36.345389z m-36.359588 37.207966v13.53146h36.359588v-13.53146zM457.393698 730.567515H274.726084a40.573083 40.573083 0 0 1 0-81.142615h182.667614a40.573083 40.573083 0 0 1 0 81.142615zM576.241237 539.529706H274.726084a40.573083 40.573083 0 0 1 0-81.142615h301.515153a40.573083 40.573083 0 1 1 0 81.142615zM681.674457 345.584692H274.726084a40.573083 40.573083 0 0 1 0-81.142616h406.948373a40.573083 40.573083 0 0 1 0 81.142616z" fill="#ffffff" p-id="28981"></path><path d="M471.049397 1003.766704H122.663991c-39.146103 0-70.99402-36.160804-70.99402-80.603061L50.321085 84.191809c0-44.573596 31.855017-80.798294 70.99402-80.798295l699.2911-3.382865c39.305839 0 71.160856 36.228249 71.160856 80.748599l-2.300206 428.803882a33.810902 33.810902 0 0 1-33.807353 33.626318h-0.188134a33.807352 33.807352 0 0 1-33.622768-33.995487l2.296657-428.629947c0-7.099402-2.956901-11.625271-4.437127-12.945759l-697.324565 3.382865c-1.476676 1.30629-4.447775 5.835708-4.447775 13.133893l1.345336 838.971835c0 7.276887 2.946252 11.75306 4.39808 13.034502h347.370191a33.810902 33.810902 0 0 1 0 67.621805zM121.49969 71.00112z" fill="#ffffff" p-id="28982"></path><path d="M749.658331 1024c-123.550893 0-224.053578-100.492036-224.053579-224.018081s100.502685-224.02873 224.053579-224.028731 224.018081 100.502685 224.018081 224.028731-100.488486 224.018081-224.018081 224.018081z m0-393.952918c-93.712107 0-169.959685 76.233379-169.959685 169.934837s76.247578 169.909989 169.959685 169.909988 169.920638-76.229829 169.920638-169.920637-76.240478-169.934837-169.920638-169.934837z" fill="#ffffff" p-id="28983"></path></svg>