<svg t="1700036078510" class="icon" viewBox="0 0 1112 1024" version="1.1" xmlns="http://www.w3.org/2000/svg" p-id="35396" width="16" height="16"><path d="M1112.422698 406.745012v38.934794a101.842298 101.842298 0 0 0-5.951461 11.791681c-21.414137 60.070826-71.195053 97.670713-130.932152 98.783135s-111.24227-35.597526-134.102556-94.555929c-1.779876-4.672175 0-11.569196-9.010624-14.239011-21.302895 65.966666-65.243591 107.571275-136.438644 108.016244-72.307475 0.444969-116.303793-42.272063-140.332123-113.411494-22.248454 70.360736-64.854243 111.24227-133.490724 113.244631-73.809246 2.280467-119.529819-39.657869-143.836255-113.244631-3.726616 9.956183-5.562113 14.739601-7.34199 19.523019-22.860286 59.180888-74.532321 95.668352-133.880071 94.555929s-109.629257-38.934794-130.932152-98.727514A112.299071 112.299071 0 0 0 0 445.679806v-38.934794c9.233108-5.117144 9.177487-15.295812 12.292271-23.472119 25.919449-68.358375 51.838898-136.71675 76.979651-205.35323 5.562113-14.405874 11.124227-21.970348 28.978611-21.914727q437.960816 0.889938 875.921632 0c17.687521 0 23.694603 7.397611 28.978612 21.914727q36.598707 100.118043 74.810426 200.236085c3.782237 9.78932 3.893479 21.970348 14.461495 28.589264zM460.932345 1007.453269c-106.013883 0-205.798199 0.556211-305.916242-0.333727-30.091034-0.278106-49.614052-21.247274-50.059021-52.172625-0.667454-110.185468 0-220.426558-0.667454-330.667647 0-15.518297 5.840219-18.688701 19.745503-17.465036 21.247274 1.835497 42.883895 1.835497 63.185609-5.562114 18.021248-6.730157 21.692243-0.50059 21.525379 16.686341-0.778696 67.579679 0.556211 135.214979-0.778696 202.850279-0.444969 22.971529 3.726616 32.81647 29.86855 31.37032 39.602248-2.169224 86.26838-12.069786 117.304973 4.672175s46.499269 62.24005 68.692102 95.223383c11.513575 16.964446 22.637802 33.81765 37.099297 55.398651zM394.298225 744.309679c0-71.417537 40.047217-130.654046 103.90028-155.127345a162.580577 162.580577 0 0 1 179.711887 43.773833c45.219983 51.560792 55.621135 126.92743 19.801124 185.941454-40.269702 66.300393-85.2672 129.764108-127.92861 194.673972-9.511214 14.461495-17.910005 13.460315-27.087493-0.389348-42.772653-64.798622-86.379623-129.096654-128.373579-194.395866a130.097835 130.097835 0 0 1-20.023609-74.4767z m162.914304 86.657729a87.992635 87.992635 0 0 0 86.602107-86.768971 88.326362 88.326362 0 0 0-88.993815-87.325182 88.493226 88.493226 0 0 0-86.602107 86.935834 88.048257 88.048257 0 0 0 88.993815 87.158319zM651.657217 1007.453269c34.985694-52.561972 66.745362-100.118043 98.115681-147.840977 6.674536-10.234289 15.852023-7.898201 24.640163-7.953822 35.152557 0 70.416357-1.279286 105.680157 0.333727 20.246093 0.945559 24.640163-6.507673 24.362057-25.251996-0.945559-68.525238 0.278106-137.050476-0.778696-205.798199-0.278106-20.134851 4.449691-26.809387 24.473299-19.356155s40.214081 6.674536 60.515795 4.950281c14.294632-1.223665 19.523018 2.614193 19.467397 17.743142-0.556211 110.185468 0 220.370936-0.667454 330.556405 0 30.980972-19.745503 51.783277-50.059021 52.061382-99.951179 1.279286-199.846738 0.556211-305.749378 0.556212zM555.822001 0.265758h374.94207c33.372681 0 54.619954 16.074508 58.958403 42.939516a50.392748 50.392748 0 0 1-38.934794 58.402192 152.40191 152.40191 0 0 1-33.038954 2.725435H195.619531a196.064501 196.064501 0 0 1-24.918268-0.889938c-30.647245-4.060343-49.558431-25.47448-48.390387-54.063743s22.248454-48.390387 53.118183-49.057841c33.372681-0.723075 66.745362 0 100.118043 0z" p-id="35397" fill="#2c2c2c"></path></svg>