<svg t="1700124229459" class="icon" viewBox="0 0 1049 1024" version="1.1" xmlns="http://www.w3.org/2000/svg" p-id="9641" width="16" height="16"><path d="M444.212036 28.242226a39.09324 39.09324 0 0 1 45.413251-2.941541l4.059669 2.941541 429.808897 351.677462c16.875151 13.469157 19.644671 38.068002 6.175514 54.960355-12.574654 15.774224-35.092058 19.386642-51.967209 8.342965l-3.664023-2.735117-405.089639-331.585539-405.072436 331.516731c-16.720333 13.675581-41.370783 11.198495-55.046365-5.521838-12.54025-15.344174-11.628545-37.637952 2.133047-51.915603l3.440397-3.044752 429.808897-351.694664z" fill="#2c2c2c" p-id="9642"></path><path d="M117.271033 313.244779c19.833893-0.034404 36.537025 14.810913 38.859294 34.489988l0.275231 4.575729v526.690498h312.594544c19.816691 0 36.485419 14.828115 38.807687 34.489988l0.275232 4.575729c0 19.816691-14.828115 36.485419-34.489988 38.807688l-4.575729 0.275231H136.829695c-30.671146-0.275232-56.026878-23.979573-58.366349-54.547507l-0.223626-5.384222v-544.907405c-0.017202-21.571294 17.477221-39.065717 39.031313-39.065717 0.017202 0 0.017202 0 0 0z" fill="#2c2c2c" p-id="9643"></path><path d="M273.499497 566.458057h156.297272c18.887784-2.68351 36.382207 10.441607 39.065717 29.329391 0.464454 3.233974 0.464454 6.502352 0 9.736326 2.700712 18.870582-10.424405 36.365005-29.294987 39.065717-3.233974 0.464454-6.536756 0.464454-9.77073 0h-156.297272c-18.870582 2.700712-36.365005-10.424405-39.065717-29.294988-0.464454-3.233974-0.464454-6.536756 0-9.770729-2.700712-18.887784 10.441607-36.382207 29.329392-39.082919 3.251176-0.464454 6.553958-0.464454 9.805133 0h-0.068808zM273.499497 410.143583h156.297272c18.887784-2.68351 36.382207 10.441607 39.065717 29.329391 0.464454 3.233974 0.464454 6.502352 0 9.736326 2.700712 18.870582-10.424405 36.365005-29.294987 39.065717-3.233974 0.464454-6.536756 0.464454-9.77073 0h-156.297272c-18.887784 2.68351-36.382207-10.441607-39.065717-29.329391-0.464454-3.233974-0.464454-6.502352 0-9.736326-2.700712-18.887784 10.441607-36.382207 29.329392-39.082919 3.251176-0.464454 6.553958-0.464454 9.805133 0h-0.068808zM273.499497 722.755329h78.148636c18.870582-2.700712 36.365005 10.424405 39.065717 29.294987 0.464454 3.233974 0.464454 6.536756 0 9.77073 2.68351 18.887784-10.441607 36.382207-29.329391 39.065717-3.233974 0.464454-6.502352 0.464454-9.736326 0h-78.148636c-18.887784 2.68351-36.382207-10.458809-39.065717-29.346594-0.447252-3.19957-0.464454-6.450746 0-9.650315-2.735116-18.870582 10.338395-36.399409 29.208978-39.134525 3.28558-0.481656 6.639968-0.481656 9.925547 0h-0.068808z" fill="#2c2c2c" p-id="9644"></path><path d="M790.040822 594.738127m-122.908211 0a122.908211 122.908211 0 1 0 245.816423 0 122.908211 122.908211 0 1 0-245.816423 0Z" fill="#2c2c2c" p-id="9645"></path><path d="M694.569784 737.893079h-78.028222l-70.614165 158.292702s-21.554092 47.529096 15.602204 49.060073 480.847198 0 480.847198 0a52.603682 52.603682 0 0 0 0-54.255073c-17.081575-28.985351-80.316087-153.097702-80.316087-153.097702H887.008434v75.809165l-69.840075-69.840075h-52.775702l-69.857277 75.035076 0.034404-81.004166z" fill="#2c2c2c" p-id="9646"></path></svg>