<svg t="1700123280706" class="icon" viewBox="0 0 1024 1024" version="1.1" xmlns="http://www.w3.org/2000/svg" p-id="8459" width="16" height="16"><path d="M0.1536 979.6096h722.176a224.0512 224.0512 0 0 1-10.752-366.9504c-48.3328-12.1856-114.3296-20.0704-170.2912-22.272-11.5712 11.4176-24.9856 36.1472-27.2896 90.112a298.9568 298.9568 0 0 1-54.6816 157.5424L447.8976 716.8H381.9008l-7.3216 129.4848c-34.3552-28.8256-59.4944-77.1584-75.264-125.8496-12.1856-37.12-8.7552-80.3328-4.1984-108.8512l-32.0512 3.1232s-193.1264 0-195.584 15.8208a125.3888 125.3888 0 0 0-24.6784 50.0224c-25.6 103.3216-37.0688 215.9616-42.8032 299.3152z m0 0" p-id="8460" fill="#2c2c2c"></path><path d="M548.6592 239.7184h-320.512v-38.0416h320.512z m-188.672-112.64a33.3312 33.3312 0 0 1-0.5632-5.12c0-21.7088 18.944-39.2192 42.3424-39.2192s42.3424 17.6128 42.3424 39.2192a34.816 34.816 0 0 1-0.9728 7.9872c12.5952-1.2288 26.2656-2.2016 38.5536-2.4576 0 0-35.2256 16.5376-55.296 26.3168a48.0256 48.0256 0 0 1-9.7792 4.7616l-0.768 0.4096a28.7232 28.7232 0 0 1-3.1232 0.6656 44.3904 44.3904 0 0 1-11.0592 1.5872c-0.768 0-1.4336-0.256-2.2528-0.256a47.9232 47.9232 0 0 1-30.72-9.8304 291.84 291.84 0 0 0-47.104-23.6544 205.3632 205.3632 0 0 1 38.5024-0.4096z m291.5328 20.0704c-19.712-39.7312-134.656-99.3792-259.9424-103.4752S133.5808 112.3328 134.5536 165.888s66.56 76.3904 66.56 76.3904c-3.4304 10.24-1.6896 50.5344-1.6896 50.5344a139.008 139.008 0 0 0 8.6528 13.312c-19.4048 256.6656 203.8784 261.12 203.8784 261.12 193.5872-20.48 178.176-231.3728 176.2816-261.9392a204.3904 204.3904 0 0 0-3.7376-27.9552 81.92 81.92 0 0 0-4.352-35.1744c28.416-11.52 91.0336-55.3984 71.168-95.0784zM432.2304 697.9072h-40.96l-33.1776-27.8016 49.664-64.8704 49.5616 55.6544z m0 0" p-id="8461" fill="#2c2c2c"></path><path d="M839.5264 974.5408a184.576 184.576 0 1 1 130.56-54.0672 183.3472 183.3472 0 0 1-130.56 54.0672z m0-331.1104a146.5856 146.5856 0 1 0 103.68 250.1632 146.5344 146.5344 0 0 0-103.68-250.1632z" p-id="8462" fill="#2c2c2c"></path><path d="M916.20497 723.411212m1.484359 1.484359l26.428823 26.428823q1.484359 1.484359 0 2.968717l-125.808439 125.808438q-1.484359 1.484359-2.968717 0l-26.428823-26.428823q-1.484359-1.484359 0-2.968717l125.808438-125.808438q1.484359-1.484359 2.968718 0Z" p-id="8463" fill="#2c2c2c"></path><path d="M733.499602 801.510425m1.484358-1.484359l26.428823-26.428823q1.484359-1.484359 2.968717 0l76.136733 76.136733q1.484359 1.484359 0 2.968717l-26.428823 26.428823q-1.484359 1.484359-2.968717 0l-76.136733-76.136733q-1.484359-1.484359 0-2.968717Z" p-id="8464" fill="#2c2c2c"></path></svg>