<svg t="1714215030866" class="icon" viewBox="0 0 1024 1024" version="1.1" xmlns="http://www.w3.org/2000/svg" p-id="6467" width="16" height="16"><path d="M369.777778 577.422222a43.235556 43.235556 0 0 0-11.662222 28.444445v182.044444a14.791111 14.791111 0 0 0 14.791111 14.791111 15.075556 15.075556 0 0 0 14.222222-12.231111 81.92 81.92 0 0 1 162.702222 0 15.075556 15.075556 0 0 0 14.222222 12.231111h28.444445a14.791111 14.791111 0 0 0 14.791111-14.791111V473.6a14.791111 14.791111 0 0 0-14.791111-15.075556h-73.102222a85.333333 85.333333 0 0 0-62.293334 27.022223L369.777778 577.422222z m38.115555 38.4a30.72 30.72 0 0 1 8.248889-19.911111l61.155556-61.44a85.333333 85.333333 0 0 1 63.146666-25.884444h5.688889a14.791111 14.791111 0 0 1 15.075556 14.791111V625.777778a14.791111 14.791111 0 0 1-15.075556 14.791111h-122.88a14.791111 14.791111 0 0 1-14.222222-14.791111z m0 9.955556" p-id="6468" fill="#ffffff"></path><path d="M471.893333 750.648889a56.888889 56.888889 0 0 1 21.048889 109.795555 56.888889 56.888889 0 0 1-74.808889-75.093333 56.888889 56.888889 0 0 1 53.76-34.702222z m430.648889 0a56.888889 56.888889 0 0 1 56.888889 56.888889 56.888889 56.888889 0 1 1-109.795555-21.617778 56.888889 56.888889 0 0 1 53.76-34.702222z m0 0" p-id="6469" fill="#ffffff"></path><path d="M609.848889 689.208889v85.333333a28.444444 28.444444 0 0 0 8.248889 20.48 28.444444 28.444444 0 0 0 20.195555 8.248889h167.253334a15.075556 15.075556 0 0 0 14.791111-12.231111 81.92 81.92 0 0 1 162.986666 12.231111 26.168889 26.168889 0 0 0 26.453334-26.453333v-87.608889z m399.928889 0" p-id="6470" fill="#ffffff"></path><path d="M635.164444 410.737778m20.764445 0l331.093333 0q20.764444 0 20.764445 20.764444l0 220.728889q0 20.764444-20.764445 20.764445l-331.093333 0q-20.764444 0-20.764445-20.764445l0-220.728889q0-20.764444 20.764445-20.764444Z" p-id="6471" fill="#ffffff"></path><path d="M24.462222 589.937778a19.342222 19.342222 0 0 1 6.257778-14.222222l64.284444-56.888889a18.773333 18.773333 0 0 1 12.8-4.835556 19.342222 19.342222 0 0 1 19.342223 19.057778 18.773333 18.773333 0 0 1-6.542223 14.222222l-26.737777 24.177778h85.333333a19.342222 19.342222 0 0 1 0 38.4h-85.333333l26.737777 24.177778a18.773333 18.773333 0 0 1 6.542223 14.222222 19.342222 19.342222 0 0 1-19.342223 19.057778 18.773333 18.773333 0 0 1-12.8-4.835556l-64.284444-56.888889a19.626667 19.626667 0 0 1-6.257778-14.506666M24.462222 348.444444l768-167.822222 13.368889 77.084445-768 168.96z m0 0" p-id="6472" fill="#ffffff"></path><path d="M248.888889 321.422222h43.235555v543.573334H248.888889z" p-id="6473" fill="#ffffff"></path></svg>