<svg t="1700034192677" class="icon" viewBox="0 0 1024 1024" version="1.1" xmlns="http://www.w3.org/2000/svg" p-id="24380" width="16" height="16"><path d="M911.2 798.7l-182.3-99.1 54.7-7.7 182.3 99.2z" fill="#ffffff" p-id="24381"></path><path d="M871.9 804.3l-182.4-99.2 39.4-5.5 182.3 99.1z" fill="#ffffff" p-id="24382"></path><path d="M965.9 791.1v47.7L228.7 942.4l0.1-47.7 643.1-90.4 39.3-5.6z" fill="#ffffff" p-id="24383"></path><path d="M228.7 942.4L46.4 843.2l0.1-47.7 182.3 99.2z" fill="#ffffff" p-id="24384"></path><path d="M228.8 894.7L46.5 795.5l643-90.4 182.4 99.2z" fill="#ffffff" p-id="24385"></path><path d="M872 715.5l-182.3-99.2c6.3 0.7 12.8 0.6 19.6-0.3 6.8-1 13.4-2.7 19.8-5.3l182.3 99.2c-6.3 2.5-13 4.3-19.8 5.3-6.7 0.9-13.3 1-19.6 0.3" fill="#ffffff" p-id="24386"></path><path d="M911.4 709.9l-0.2 88.9-39.3 5.5 0.2-88.8c6.3 0.7 12.8 0.6 19.6-0.3 6.7-1 13.3-2.8 19.7-5.3z" fill="#ffffff" p-id="24387"></path><path d="M871.9 804.3l-182.4-99.2 0.2-88.8L872 715.5z" fill="#ffffff" p-id="24388"></path><path d="M872 715.5l-182.3-99.2c6.3 0.7 12.8 0.6 19.6-0.3 6.8-1 13.4-2.7 19.8-5.3l182.3 99.2c-6.3 2.5-13 4.3-19.8 5.3-6.7 0.9-13.3 1-19.6 0.3" fill="#ffffff" p-id="24389"></path><path d="M891.9 531.7c46.9-6.6 84.9 29.1 84.8 79.8-0.1 43.3-28 83.5-65.4 98.4-6.3 2.5-13 4.3-19.8 5.3-6.7 0.9-13.3 1-19.6 0.3-37.5-4.3-65.3-36.7-65.3-80.1 0.3-50.7 38.4-97.1 85.3-103.7z" fill="#ffffff" p-id="24390"></path><path d="M899 531c0.4 0 0.8 0 1.2-0.1h3.5c1 0 1.9 0 2.9 0.1h0.5l3.3 0.3c0.3 0 0.6 0.1 1 0.1l2.4 0.3c0.4 0.1 0.8 0.1 1.2 0.2 0.7 0.1 1.5 0.3 2.2 0.4 0.4 0.1 0.7 0.1 1.1 0.2 0.8 0.2 1.6 0.4 2.5 0.6 0.2 0.1 0.5 0.1 0.7 0.2 1.1 0.3 2.1 0.6 3.2 0.9 0.3 0.1 0.5 0.2 0.8 0.3 0.8 0.3 1.6 0.5 2.3 0.8 0.3 0.1 0.7 0.3 1 0.4 0.7 0.3 1.4 0.6 2.1 0.8 0.3 0.1 0.6 0.3 1 0.4 0.9 0.4 1.7 0.8 2.6 1.2 0.1 0.1 0.2 0.1 0.3 0.2 0.8 0.4 1.6 0.8 2.5 1.3h0.1L755 440.3c-0.8-0.5-1.7-0.9-2.5-1.3-0.1 0-0.2-0.1-0.3-0.1-0.9-0.4-1.7-0.8-2.6-1.2-0.3-0.1-0.6-0.3-1-0.4-0.7-0.3-1.4-0.6-2.1-0.8-0.3-0.1-0.7-0.3-1-0.4-0.8-0.3-1.5-0.5-2.3-0.8-0.3-0.1-0.5-0.2-0.8-0.3-1-0.3-2.1-0.6-3.2-0.9h-0.1c-0.2-0.1-0.4-0.1-0.6-0.1-0.8-0.2-1.6-0.4-2.5-0.6-0.4-0.1-0.7-0.1-1.1-0.2-0.7-0.1-1.5-0.3-2.2-0.4-0.4-0.1-0.8-0.1-1.2-0.2l-2.4-0.3c-0.3 0-0.6-0.1-1-0.1l-3.3-0.3h-0.5c-1 0-1.9-0.1-2.9-0.1h-3.5c-0.4 0-0.8 0-1.2 0.1-0.8 0-1.6 0.1-2.4 0.2-0.4 0-0.7 0.1-1.1 0.1-1.2 0.1-2.4 0.2-3.5 0.4-1 0.1-1.9 0.3-2.9 0.5-0.2 0-0.5 0.1-0.7 0.1-0.9 0.2-1.7 0.3-2.6 0.5-0.1 0-0.2 0-0.2 0.1-0.9 0.2-1.9 0.4-2.8 0.7-0.2 0.1-0.5 0.1-0.7 0.2-0.8 0.2-1.6 0.4-2.4 0.7-0.1 0-0.3 0.1-0.4 0.1l-2.7 0.9c-0.2 0.1-0.5 0.2-0.7 0.2-0.8 0.3-1.5 0.5-2.3 0.8-0.2 0.1-0.3 0.1-0.5 0.2-0.9 0.3-1.8 0.7-2.6 1.1l-0.6 0.3c-0.7 0.3-1.5 0.6-2.2 1-0.1 0.1-0.3 0.1-0.4 0.2 0 0-0.1 0-0.1 0.1-1.1 0.5-2.1 1-3.1 1.5-0.2 0.1-0.4 0.2-0.5 0.3-1 0.5-2 1.1-3 1.7-0.2 0.1-0.3 0.2-0.5 0.3l-3 1.8c-0.1 0.1-0.2 0.1-0.3 0.2-1 0.7-2 1.3-3 2h-0.1c-0.8 0.5-1.6 1.1-2.4 1.7-0.2 0.1-0.4 0.3-0.6 0.5-0.7 0.5-1.4 1-2 1.5l-0.3 0.3c-0.8 0.6-1.5 1.2-2.2 1.8-0.2 0.2-0.4 0.3-0.6 0.5-0.6 0.5-1.2 1.1-1.8 1.6l-0.3 0.3-0.1 0.1c-0.7 0.6-1.3 1.2-2 1.9-0.2 0.1-0.3 0.3-0.4 0.4-0.5 0.5-1 1-1.6 1.5l-0.6 0.6c-0.6 0.6-1.1 1.1-1.6 1.7l-0.3 0.3c-0.6 0.7-1.2 1.4-1.9 2l-0.2 0.2c-0.1 0.1-0.2 0.3-0.3 0.4-0.5 0.5-0.9 1.1-1.4 1.6-0.2 0.2-0.3 0.4-0.5 0.6-0.6 0.7-1.1 1.4-1.7 2.1l-0.1 0.1c-0.6 0.7-1.1 1.5-1.7 2.2-0.2 0.2-0.3 0.4-0.5 0.6-0.4 0.6-0.8 1.1-1.2 1.7-0.1 0.1-0.2 0.3-0.3 0.4-0.1 0.1-0.1 0.1-0.1 0.2-0.6 0.8-1.1 1.6-1.6 2.4-0.1 0.1-0.2 0.3-0.3 0.4-0.5 0.7-0.9 1.4-1.3 2.1-0.1 0.2-0.3 0.4-0.4 0.7-0.5 0.8-1 1.7-1.5 2.5v0.1c-0.5 0.8-0.9 1.7-1.4 2.5-0.1 0.1-0.1 0.2-0.2 0.3-0.1 0.1-0.1 0.2-0.2 0.3-0.5 1-1.1 2-1.6 3.1-0.1 0.1-0.1 0.3-0.2 0.4-0.5 1-1 2-1.4 3-0.1 0.1-0.1 0.3-0.2 0.4-0.5 1-0.9 2.1-1.4 3.2l-0.3 0.6c-0.4 1.1-0.8 2.1-1.2 3.2 0 0.1 0 0.1-0.1 0.2 0 0.1-0.1 0.2-0.1 0.3-0.5 1.3-0.9 2.6-1.3 3.9 0 0.1-0.1 0.3-0.1 0.4-0.4 1.3-0.8 2.7-1.2 4 0 0.1-0.1 0.3-0.1 0.4-0.4 1.4-0.7 2.7-1 4.1 0 0.1 0 0.2-0.1 0.3l-0.9 4.2c0 0.1 0 0.2-0.1 0.3-0.3 1.4-0.5 2.8-0.7 4.3v0.2c-0.2 1.5-0.4 2.9-0.5 4.4v0.2l-0.3 4.5v0.1c-0.1 1.5-0.1 3.1-0.1 4.6-0.1 32.6 15.7 59.1 39.4 72l182.3 99.2c-23.8-12.9-39.5-39.4-39.4-72 0-1.5 0-3.1 0.1-4.6v-0.1l0.3-4.5v-0.2c0.1-1.5 0.3-2.9 0.5-4.4v-0.2c0.2-1.4 0.4-2.9 0.7-4.3 0-0.1 0-0.2 0.1-0.3 0.3-1.4 0.5-2.8 0.9-4.2 0-0.1 0-0.2 0.1-0.3 0.3-1.4 0.7-2.7 1-4.1 0-0.1 0.1-0.3 0.1-0.4 0.4-1.3 0.8-2.7 1.2-4 0-0.1 0.1-0.3 0.1-0.4 0.4-1.3 0.9-2.6 1.3-3.9 0.1-0.2 0.1-0.3 0.2-0.5 0.4-1.1 0.8-2.1 1.2-3.2l0.3-0.6c0.4-1.1 0.9-2.1 1.4-3.2 0.1-0.1 0.1-0.3 0.2-0.4 0.5-1 0.9-2 1.4-3 0.1-0.1 0.1-0.2 0.2-0.4 0.5-1 1-2 1.6-3.1l0.3-0.6c0.5-0.8 0.9-1.7 1.4-2.5v-0.1c0.5-0.8 1-1.7 1.5-2.5 0.1-0.2 0.3-0.4 0.4-0.7 0.4-0.7 0.9-1.4 1.3-2.1 0.1-0.1 0.2-0.3 0.3-0.4 0.5-0.8 1.1-1.6 1.6-2.4 0.1-0.2 0.3-0.4 0.4-0.6 0.4-0.6 0.8-1.1 1.2-1.7 0.2-0.2 0.3-0.4 0.5-0.6 0.6-0.7 1.1-1.5 1.7-2.2l0.1-0.1c0.6-0.7 1.1-1.4 1.7-2.1 0.2-0.2 0.3-0.4 0.5-0.6 0.5-0.5 0.9-1.1 1.4-1.6 0.2-0.2 0.3-0.4 0.5-0.6 0.6-0.7 1.2-1.4 1.9-2l0.3-0.3c0.5-0.6 1.1-1.1 1.6-1.7l0.6-0.6c0.5-0.5 1-1 1.6-1.5l0.4-0.4c0.7-0.6 1.3-1.3 2-1.9l0.4-0.4c0.6-0.5 1.2-1.1 1.8-1.6 0.2-0.2 0.4-0.3 0.6-0.5 0.7-0.6 1.5-1.2 2.2-1.8l0.3-0.3c0.7-0.5 1.3-1 2-1.5 0.2-0.2 0.4-0.3 0.6-0.5 0.8-0.6 1.6-1.1 2.4-1.7 0 0 0.1 0 0.1-0.1 1-0.7 2-1.4 3-2 0.1-0.1 0.2-0.1 0.3-0.2l3-1.8c0.2-0.1 0.3-0.2 0.5-0.3 1-0.6 2-1.1 3-1.7 0.2-0.1 0.4-0.2 0.5-0.3 1-0.5 2.1-1.1 3.1-1.6 0.2-0.1 0.3-0.2 0.5-0.2 0.7-0.3 1.5-0.7 2.2-1l0.6-0.3c0.9-0.4 1.8-0.7 2.6-1.1 0.2-0.1 0.3-0.1 0.5-0.2 0.8-0.3 1.5-0.6 2.3-0.8 0.2-0.1 0.5-0.2 0.7-0.2l2.7-0.9c0.1 0 0.3-0.1 0.4-0.1 0.8-0.2 1.6-0.5 2.4-0.7 0.2-0.1 0.5-0.1 0.7-0.2 0.9-0.2 1.9-0.5 2.8-0.7h0.2c0.9-0.2 1.8-0.4 2.6-0.5 0.2 0 0.5-0.1 0.7-0.1 1-0.2 1.9-0.3 2.9-0.5 1.2-0.2 2.4-0.3 3.5-0.4 0.4 0 0.7-0.1 1.1-0.1 0.9-0.2 1.7-0.2 2.5-0.3z" fill="#ffffff" p-id="24391"></path><path d="M573 846.2L390.6 747l0.9-440.8 182.3 99.2z" fill="#ffffff" p-id="24392"></path><path d="M573.8 405.4l-182.3-99.2 196.4-27.6 182.3 99.2z" fill="#ffffff" p-id="24393"></path><path d="M707.2 617.7l-0.1 83.7-77.6 10.9 0.1-83.7zM707.5 456.5l-0.1 83.7-77.6 10.9 0.1-83.7z" fill="#ffffff" p-id="24394"></path><path d="M573.8 405.4l196.4-27.6-0.8 440.8L573 846.2l0.8-440.8z m133.3 296l0.2-83.8-77.6 10.9-0.2 83.8 77.6-10.9m0.3-161.2l0.2-83.8-77.6 10.9-0.2 83.8 77.6-10.9" fill="#ffffff" p-id="24395"></path><path d="M273.9 888.2L91.6 789l1.2-632.6 182.3 99.2z" fill="#ffffff" p-id="24396"></path><path d="M275.1 255.6L92.8 156.4l298.7-41.9 182.3 99.1z" fill="#ffffff" p-id="24397"></path><path d="M477.2 643.1l-0.4 216.6-106.8 15 0.4-216.6zM394.8 498.5l-0.2 75.4-69.8 9.8 0.1-75.4zM395.1 338.5l-0.2 75.4-69.8 9.8 0.1-75.4z" fill="#ffffff" p-id="24398"></path><path d="M275.1 255.6l298.7-42-1.2 632.6-95.9 13.5 0.4-216.6-106.8 15-0.3 216.6-96 13.5 1.1-632.6z m119.5 318.3l0.1-75.4-69.9 9.8-0.1 75.4 69.9-9.8m0.3-160l0.1-75.4-69.9 9.8-0.1 75.4 69.9-9.8m128.2 142l0.1-75.4-69.9 9.8-0.1 75.4 69.9-9.8m0.3-160.1l0.1-75.4-69.9 9.8-0.1 75.4 69.9-9.8" fill="#ffffff" p-id="24399"></path><path d="M523.2 480.5l-0.1 75.4-69.9 9.8 0.2-75.4zM523.5 320.4l-0.1 75.4-69.9 9.8 0.1-75.4z" fill="#ffffff" p-id="24400"></path></svg>