<svg t="1700036242150" class="icon" viewBox="0 0 1024 1024" version="1.1" xmlns="http://www.w3.org/2000/svg" p-id="41218" width="16" height="16"><path d="M172.501333 336.085333l-36.736 110.677334a22.485333 22.485333 0 0 0-11.264-3.2H43.264a22.613333 22.613333 0 0 0-22.613333 22.656v19.626666c0 12.458667 10.112 22.613333 22.613333 22.613334l30.762667 5.248a142.08 142.08 0 0 0-15.232 65.962666l-11.392 130.176c0 3.754667 0.298667 7.594667 0.768 11.477334a41.130667 41.130667 0 0 0-0.768 7.338666v156.629334c0 22.272 18.090667 40.362667 40.362666 40.362666h61.610667a40.32 40.32 0 0 0 40.362667-40.362666v-50.346667h252.928v-101.12H370.218667a18.176 18.176 0 0 1-18.176-18.176v-51.072c0-10.026667 8.149333-18.176 18.176-18.176h72.448v-133.888H256.128c-29.184 0-64.256-23.04-66.517333-52.224l10.026666-39.893333 26.88-71.552 0.384-1.664c2.688-14.464 8.661333-17.066667 17.493334-28.245334h198.272V243.157333H282.624c-62.293333 0-100.096 40.661333-110.122667 92.928z m45.994667 302.421334a61.141333 61.141333 0 1 1 0 122.282666 61.141333 61.141333 0 0 1 0-122.282666zM909.354667 115.541333h-72.021334a42.666667 42.666667 0 0 0-42.666666-42.666666H672a42.666667 42.666667 0 0 0-42.666667 42.666666h-73.770666a85.333333 85.333333 0 0 0-85.333334 85.333334v642.986666a85.333333 85.333333 0 0 0 85.333334 85.333334h353.792a85.333333 85.333333 0 0 0 85.333333-85.333334V200.874667a85.333333 85.333333 0 0 0-85.333333-85.333334z m-314.24 497.792a40.021333 40.021333 0 1 1 0-80.042666 40.021333 40.021333 0 0 1 0 80.042666z m0-130.645333a40.021333 40.021333 0 1 1 0-80.042667 40.021333 40.021333 0 0 1 0 80.042667z m0-128a40.021333 40.021333 0 1 1 0-80.042667 40.021333 40.021333 0 0 1 0 80.042667z m294.656 238.634667h-194.688a20.010667 20.010667 0 0 1 0-40.021334h194.688a20.010667 20.010667 0 0 1 0 40.021334z m0-130.645334h-194.688a20.010667 20.010667 0 0 1 0-40.021333h194.688a20.010667 20.010667 0 0 1 0 40.021333z m0-128h-194.688a20.010667 20.010667 0 0 1 0-40.021333h194.688a20.010667 20.010667 0 0 1 0 40.021333z" p-id="41219" fill="#2c2c2c"></path></svg>