<svg t="1700035951929" class="icon" viewBox="0 0 1087 1024" version="1.1" xmlns="http://www.w3.org/2000/svg" p-id="31792" width="16" height="16"><path d="M1024.931595 573.759039A75.75441 75.75441 0 0 0 937.468522 511.888672c-7.165958 0-19.962311-13.308207-23.54529-23.033436a5088.725713 5088.725713 0 0 1-65.517327-174.478273A107.489366 107.489366 0 0 0 772.651495 243.165258c-51.185412-13.308207-102.370824-21.497873-150.485112-31.734956A734.894555 734.894555 0 0 0 508.086896 204.776199a252.791954 252.791954 0 0 0-69.100307-130.010947A248.249249 248.249249 0 0 0 257.278376 0.098532a261.045602 261.045602 0 0 0-181.708213 74.66672A259.957912 259.957912 0 0 0 1.479279 255.961611a255.927061 255.927061 0 0 0 74.218847 181.132377c13.116262 13.244225 27.704104 24.952888 43.507601 34.80608l-7.677812 20.474165c-3.582979 8.70152-15.355624 22.009727-21.497873 21.497873C37.181104 507.218003 16.706939 538.952958 1.351315 579.901288a58.863224 58.863224 0 0 0 0 25.080852l54.768391 14.331915c0 74.730702 0 148.949549-3.071124 223.104416v119.773864c0.191945 19.57842 6.654104 38.581004 18.426748 54.256537a486.197434 486.197434 0 0 0 167.82417 0c11.772645-4.606687 17.40304-62.446203 26.616414-97.252283h497.970079c12.284499 32.758664-11.260791 73.195139 26.616414 97.252283 54.3845 8.381611 109.792709 7.357903 163.793319-3.071125 10.620973-13.436171 16.699241-29.943466 17.40304-47.090579v-283.503201a515.884973 515.884973 0 0 0-7.165957-61.934349l60.334804-15.867478c2.559271-10.237082 2.559271-20.986019 0-31.223101zM52.600709 255.961611a208.260646 208.260646 0 0 1 59.375078-144.854716A209.284354 209.284354 0 0 1 257.278376 51.219962a196.488001 196.488001 0 0 1 145.366571 59.886933c25.976597 25.784651 44.403345 58.223406 53.232828 93.669304 0 5.630395 0 11.260791 3.071125 17.40304 1.919453 11.132827 2.943161 22.393618 3.071125 33.782372a204.741649 204.741649 0 0 1-3.582979 38.389059 209.86019 209.86019 0 0 1-55.792099 106.465657 209.284354 209.284354 0 0 1-145.366571 59.822951 215.426603 215.426603 0 0 1-51.185412-7.165958 204.741649 204.741649 0 0 1-34.230244-11.772645 182.220067 182.220067 0 0 1-30.711248-17.40304 197.511709 197.511709 0 0 1-26.616414-22.457599A204.741649 204.741649 0 0 1 52.536727 255.961611z m222.656543 511.79014c-18.042858 3.518997-36.469606 5.118541-54.768391 4.606687-26.616414-2.559271-51.185412-3.582979-79.849243-8.70152-33.782372-7.165958-43.5076-31.734956-33.270518-76.266264 7.165958-30.199393 31.223101-31.734956 51.185412-24.568998 43.571582 14.587842 86.311401 31.670974 127.963531 51.185412 10.237082 4.606687 21.945745 24.057144 19.386475 31.223101a51.185412 51.185412 0 0 1-30.711248 22.521582zM176.917279 529.163748l10.237082-27.640122c22.777508 6.590122 46.38678 9.981155 70.060033 10.237082a261.045602 261.045602 0 0 0 181.708213-74.730702 261.493474 261.493474 0 0 0 70.124015-140.759883c67.05289 0 133.529944 3.646961 200.582834 6.206231 41.076293-0.831763 76.778118 27.832068 84.967784 68.076598 14.331915 51.185412 33.270518 102.370824 51.185412 158.674778a1616.691243 1616.691243 0 0 1-668.865373 0z m716.467807 231.358063c-26.616414 4.862614-53.424774 8.317629-80.361097 10.237083a576.283759 576.283759 0 0 1-69.100307-6.14225c-25.592706-5.630395-33.782372-35.317934-11.26079-46.066871a1108.995936 1108.995936 0 0 1 153.556236-58.35137c20.986019-6.654104 35.317934 10.748937 36.341643 33.782372 1.023708 23.033435 6.654104 57.839516-31.734956 66.541036h2.559271zM359.6492 307.147023V255.961611h-102.370824V153.590787h-51.185412v153.556236h153.556236z" fill="#2c2c2c" p-id="31793"></path></svg>