<svg t="1700035991089" class="icon" viewBox="0 0 1024 1024" version="1.1" xmlns="http://www.w3.org/2000/svg" p-id="33102" width="16" height="16"><path d="M93.056 485.504l204.096 203.072v309.76l129.728 0.128c-4.288-7.168-7.04-20.288-7.936-29.76-1.536-24.576-0.512-49.728-0.512-74.816l1.536-138.816c-8.704-2.048-21.12-5.632-33.408-8.704-0.512-4.608-1.536-9.728 0-15.872 8.768-25.6 21.12-45.056 53.504-40.96 4.096 0.512 11.264-7.68 13.312-13.312 10.816-28.672 22.656-57.344 30.848-87.04 13.44-49.728 49.344-69.696 95.104-78.912 17.984-1.536 35.456-4.096 52.992-6.656a452.864 452.864 0 0 1 134.144 0c30.848 6.656 61.696 11.776 92.032 19.968 22.08 6.144 38.528 21.504 46.272 44.544 12.8 36.416 25.664 72.768 40.064 108.608 2.56 6.144 10.24 14.848 14.4 14.336 29.312-3.072 43.2 12.8 51.904 36.864a41.152 41.152 0 0 1 0 19.456c-12.352 3.584-24.64 6.656-35.968 9.728 1.536 12.8 4.608 25.6 4.608 38.4 0.512 58.944 1.024 117.312-0.512 176.256 0 8.448-4.224 21.12-8 26.688L1024 998.4c-5.632 8.704-12.352 17.408-18.56 25.6H18.56c-6.208-8.704-12.416-16.896-18.56-25.6h93.056V485.504z m759.232 456.576h-302.72c-4.736 17.856-8 46.016-13.12 56.448l327.168-0.192-0.704-0.64c-14.656-15.04-3.648-37.184-10.624-55.68zM451.84 797.632c-6.144 27.648-0.512 43.008 20.032 47.104a256 256 0 0 0 32.448 4.48l16.448 1.664c11.264 0 22.592-0.512 33.408-3.072 7.68-2.048 17.472-8.192 20.032-14.848 1.536-4.608-5.632-16.896-11.84-19.456a689.6 689.6 0 0 0-78.08-31.232c-13.44-4.096-28.352-3.584-32.448 15.36z m475.008-15.36a595.456 595.456 0 0 0-94.08 36.352c-13.888 6.656-8.704 25.088 6.656 28.672 12.352 2.048 25.728 2.048 42.24 3.584 14.336-1.536 32.32-2.56 49.28-6.144 23.168-5.12 18.56-25.088 17.984-41.472-0.512-14.336-9.216-25.088-22.08-20.992zM625.088 553.28c-21.568 0-43.2 5.12-64.256 9.728-8.704 2.048-20.032 8.704-23.104 15.872-15.424 39.488-28.288 78.912-43.712 121.408 139.328 28.672 272.448 29.184 409.664 0-11.264-35.328-23.104-66.56-31.872-98.816-7.68-27.712-25.152-40.96-51.84-42.56a4947.2 4947.2 0 0 0-194.88-5.632z m2.56-545.984a25.856 25.856 0 0 1 35.968 0 25.6 25.6 0 0 1 0 35.84L270.912 434.56c16.448 17.92 26.24 41.984 26.24 68.096l0.512 186.432-203.072-202.304A101.76 101.76 0 0 1 227.2 405.76z m-432.32 469.12a25.728 25.728 0 0 0-25.664 25.6c0 14.4 11.776 25.664 25.664 25.664a26.048 26.048 0 0 0 25.728-25.6c0-14.336-11.84-25.6-25.728-25.6z" fill="#2c2c2c" p-id="33103"></path></svg>