<svg t="1700194290088" class="icon" viewBox="0 0 1024 1024" version="1.1" xmlns="http://www.w3.org/2000/svg" p-id="3789" width="16" height="16"><path d="M954.88 782.336c-17.92-78.336-54.272-132.608-109.056-172.544-13.824-9.728-28.16-18.432-44.032-26.112-5.632-2.56-11.776-5.12-17.408-7.68v-0.512c7.168-8.192 16.896-13.312 23.552-21.504 15.36-19.968 28.672-39.936 36.864-68.096 9.216-32.256 5.12-75.776-5.12-102.912-22.016-57.856-74.752-107.52-153.6-105.984-4.096 0.512-8.192 0.512-12.288 1.024-9.216 1.536-18.432 2.56-27.136 5.12-33.28 10.24-61.44 29.184-80.384 54.272-15.36 20.48-27.136 43.52-33.792 74.24-9.216 41.984 3.584 87.552 18.944 113.664 5.12 9.216 11.264 16.896 17.408 24.576 5.632 7.168 19.456 22.528 27.648 26.112v0.512c-6.656 3.072-13.312 5.632-19.968 8.704-14.336 6.656-28.672 14.848-40.96 24.064-47.104 34.304-83.968 81.92-102.912 144.896-3.584 11.264-5.632 23.04-8.192 35.84-4.608 23.552-4.096 52.736-4.096 81.408 0 15.36-0.512 29.696 5.632 37.888 7.168 9.216 20.992 8.192 37.376 8.192H908.288c11.776 0 28.16 2.048 36.864-2.048 15.36-7.168 13.312-22.016 13.312-44.544 1.024-31.232 2.048-63.488-3.584-88.576z" p-id="3790"></path><path d="M104.96 440.32c0-168.448 136.704-305.152 305.152-305.152 82.432 0 157.696 32.768 212.48 86.016l38.912-17.92C599.04 136.192 509.44 94.72 410.112 94.72c-190.976 0-345.6 154.624-345.6 345.6 0 162.816 112.128 299.008 263.168 335.872l28.672-35.328c-142.848-25.088-251.392-150.016-251.392-300.544z" p-id="3791"></path><path d="M389.632 274.432v154.112l-85.504 85.504c-8.192 8.192-8.192 20.992 0 29.184s20.992 8.192 29.184 0L424.96 452.096c2.56-2.56 4.096-5.12 5.12-8.192v-0.512c0-0.512 0.512-1.024 0.512-1.536v-0.512-1.536-0.512-164.864c0-11.264-9.216-20.48-20.48-20.48s-20.48 9.216-20.48 20.48z" p-id="3792"></path></svg>
