<svg t="1700032323908" class="icon" viewBox="0 0 1024 1024" version="1.1" xmlns="http://www.w3.org/2000/svg" p-id="11841" width="16" height="16"><path d="M878.08 678.4c8.192-1.536 14.336-9.216 12.8-17.92 0-8.192-6.144-14.848-14.336-14.848h-51.2c-33.792-52.224-52.224-78.336-107.008-78.336H593.92c-54.784 0-73.216 26.112-107.008 78.336h-49.664c-8.192-0.512-14.848 5.632-15.36 13.312v1.536c-1.024 8.704 4.608 16.384 12.8 17.92L471.04 686.08l-49.664 37.888v169.472c0 14.336 11.776 26.112 26.112 26.112H486.4c14.336 0 26.112-11.776 26.112-26.112V880.64h286.72v12.8c0 14.336 11.776 26.112 26.112 26.112h38.912c14.336 0 26.112-11.776 26.112-26.112v-169.472l-49.664-37.888 37.376-7.68z m-292.352-85.504h140.8c40.96 0 57.856 37.376 73.216 78.336h-286.72c14.848-40.448 32.256-78.336 72.704-78.336z m-46.592 195.584v12.8H480.256c-21.504 0-38.912-17.408-38.912-38.912v-12.8h58.88c21.504 0 38.912 17.408 38.912 38.912z m114.176 0c0 7.168-9.216 12.8-16.384 12.8h-38.912c-21.504 0-38.912-17.408-38.912-38.912 0-7.68 10.24-12.8 18.432-12.8h59.904c7.168 0 16.384 5.632 16.384 12.8v26.112z m61.952 13.312H675.84c-7.168 0-16.384-5.632-16.384-12.8V762.88c0-7.168 9.216-12.8 16.384-12.8h59.904c7.68 0 18.432 5.12 18.432 12.8 0 21.504-17.408 38.912-38.912 38.912z m156.16-52.224v12.8c0 21.504-17.408 38.912-38.912 38.912h-58.88V788.48c0-21.504 17.408-38.912 38.912-38.912h58.88zM289.792 279.552h308.736v71.68H289.792zM289.792 421.888H491.52v71.68H289.792z" p-id="11842" fill="#ffffff"></path><path d="M224.768 197.12h457.216v301.568h92.16V104.96H132.608v814.08H353.28v-92.16H224.768z" p-id="11843" fill="#ffffff"></path></svg>