<svg t="1700033552881" class="icon" viewBox="0 0 1024 1024" version="1.1" xmlns="http://www.w3.org/2000/svg" p-id="21134" width="16" height="16"><path d="M699.531636 495.709091l3.211637-6.981818c4.840727-10.146909 22.016-12.893091 30.626909-16.663273 6.981818-3.723636 16.663273-7.493818 22.574545-17.687273 22.016-36.538182 32.209455-103.191273 21.457455-124.136727-3.165091-5.911273-5.911273-8.098909-16.663273-16.104727a71.866182 71.866182 0 0 1-9.076364-6.469818c-0.558545-5.352727 6.981818-18.292364 10.705455-52.13091v-4.328727c1.117091-41.332364-3.723636-91.322182-27.927273-122.414545-31.185455-38.213818-70.888727-43.054545-99.374545-37.701818-26.903273-28.997818-49.989818-43.473455-68.282182-43.473455-4.282182 0-9.681455-0.558545-15.034182-0.558545-34.397091-1.070545-56.971636-1.629091-71.447273 10.705454-6.981818 0.977455-13.963636 1.396364-20.945454 1.117091-10.24-0.512-86.574545 6.469818-118.225455 53.76-48.407273 71.400727-45.149091 124.090182-36.538181 162.769455l0.465454 3.770181c1.675636 7.540364 3.258182 14.568727 4.421818 20.386909 10.146909-0.465455 25.134545 2.187636 30.021818-2.65309 46.266182-45.661091 112.314182-44.544 176.779637-41.89091 49.431273 2.141091 101.050182-2.699636 132.747636-21.504 11.822545-6.981818 24.669091-18.804364 31.697455-6.423272 6.981818 11.822545 1.070545 21.410909-11.264 28.485818-44.637091 26.810182-101.562182 30.021818-158.533818 27.322182-56.459636-2.094545-110.173091-4.840727-139.17091 20.992a54.272 54.272 0 0 1-25.786181 13.405091c-8.098909 1.070545-23.086545 3.816727-33.326546 3.258181-9.681455 0.558545-14.522182 2.141091-21.504 9.12291a24.064 24.064 0 0 0-8.052363 18.292363c0 53.201455 4.887273 106.914909 26.856727 117.666909 3.258182 1.070545 5.911273 3.258182 9.169454 4.282182 14.522182 6.469818 34.909091 10.798545 38.679273 19.874909 30.626909 77.963636 85.969455 158.533818 172.450909 158.533818 88.622545-1.117091 137.076364-67.723636 169.285818-152.576z m-283.694545 160.674909s-35.467636 23.645091-36.584727 23.645091c-1.070545 0-2.141091 0-2.653091 0.512-22.062545 7.540364-42.449455 11.822545-59.624728 15.592727h-1.11709c-41.378909 8.610909-76.8 16.151273-106.356364 48.919273C164.910545 794.996364 141.777455 824.552727 139.636364 942.219636c0 4.375273 1.070545 8.098909 3.770181 10.752a10.891636 10.891636 0 0 0 8.052364 4.328728h240.733091a21.736727 21.736727 0 0 0 21.457455-23.645091c-4.840727-46.219636-8.564364-139.170909-1.582546-192.372364 3.723636-29.044364 6.981818-49.384727 13.963636-62.370909 4.282182-9.634909-10.24-22.528-10.24-22.528z m130.513454 128.418909l39.796364-61.812364c2.187636-3.723636 3.258182-7.493818 1.582546-11.822545a9.309091 9.309091 0 0 0-4.235637-5.911273c-0.558545 0-1.675636-0.465455-3.258182-0.465454-8.052364-1.117091-30.068364-11.869091-51.572363-11.869091-21.457455 0-44.590545 10.24-53.76 11.822545-1.582545 0-3.258182 0.512-3.723637 0.512-1.117091 0-3.258182 2.187636-4.282181 5.399273a17.035636 17.035636 0 0 0 1.070545 11.776l40.261818 61.812364-66.653091 140.8c-2.094545 5.352727-1.024 11.776 1.629091 15.034181l80.058182 73.63491c1.117091 1.070545 1.629091 1.070545 2.187636 1.070545 0.465455 0 1.070545-0.558545 1.070546 0.512l81.640727-74.658909a13.870545 13.870545 0 0 0 2.141091-15.592727l-63.953455-140.241455z m268.19491-61.812364c-53.248-17.733818-83.316364-24.669091-103.703273-28.439272l-2.187637-0.558546c-22.574545-4.282182-27.927273-5.911273-40.308363-17.221818-1.629091-1.582545-5.911273-9.122909-9.681455-14.987636-15.499636-9.169455-34.443636 12.334545-30.626909 21.504 3.770182 10.705455 8.098909 24.157091 10.752 41.332363 11.822545 68.794182 9.681455 161.745455 6.981818 207.965091a21.457455 21.457455 0 0 0 21.504 22.574546h250.414546c6.469818 0 11.822545-5.399273 12.381091-12.427637 5.911273-60.695273-17.221818-185.902545-115.525818-219.741091z" fill="#2c2c2c" p-id="21135"></path></svg>