<svg t="1700036165761" class="icon" viewBox="0 0 1075 1024" version="1.1" xmlns="http://www.w3.org/2000/svg" p-id="38829" width="16" height="16"><path d="M129.024 105.8304h827.904c20.736 0 31.1296 10.3424 31.1296 31.1296v793.6512c0 20.736-10.3936 31.1296-31.1296 31.1296H129.024c-20.7872 0-31.1296-10.3936-31.1296-31.1296V136.96c0-20.7872 10.3424-31.1296 31.1296-31.1296z" fill="#ffffff" p-id="38830"></path><path d="M956.928 74.7008H129.024c-34.4064 0-62.2592 27.8528-62.2592 62.2592v793.6512c0 34.4064 27.8528 62.2592 62.2592 62.2592h827.904c34.3552 0 62.2592-27.8528 62.2592-62.2592V136.96c0-34.4064-27.904-62.2592-62.2592-62.2592zM129.024 136.96h827.904v793.6512H129.024V136.96z" fill="#ffffff" p-id="38831"></path><path d="M284.672 342.3744h188.0576v68.608H284.672v-68.608z m0 186.7264h188.0576v68.608H284.672v-68.608z m0 186.7776h188.0576v68.608H284.672v-68.608z m437.248 93.3376l-94.0032-91.4944 50.5344-48.0256 45.8752 45.7728 104.6528-92.672 47.0016 50.3296-154.0096 136.0896H721.92zM752.5376 0H360.0384v209.3568h392.4992V0z" fill="#ffffff" p-id="38832"></path><path d="M842.5472 361.5744l-81.9712 15.0528a871.936 871.936 0 0 1-2.2528-69.12h-26.7776c0 27.0336 1.1264 51.5584 3.072 73.8816l-35.4304 6.4 3.9424 25.3952 33.9968-6.4512c2.2528 18.688 5.3248 35.1744 9.216 49.152 2.7648 10.5472 5.8368 20.3264 9.216 29.4912-18.432 13.9776-39.6288 25.088-63.5904 33.4848l14.4896 22.5792a247.04 247.04 0 0 0 59.648-30.9248c4.1984 9.216 8.96 17.2544 14.2336 24.2176 13.4144 17.8688 26.5216 27.0848 39.936 27.0848 8.8576 0 16.6912-6.7072 23.6544-19.5584 5.5808-10.5984 10.8544-23.9616 15.872-39.8336l-23.6544-14.7968c-6.144 28.9792-11.776 44.032-17.3056 45.1584-8.0896-0.256-16.9984-8.3456-26.7776-24.2688a212.1216 212.1216 0 0 1-6.656-13.6192 267.4688 267.4688 0 0 0 56.832-74.752l-22.8352-11.9808a243.456 243.456 0 0 1-43.52 59.648 359.68 359.68 0 0 1-7.5264-29.8496 308.0704 308.0704 0 0 1-5.2736-35.9424l83.3536-15.36-3.8912-25.088z m-143.872 53.248a399.0528 399.0528 0 0 1-30.976 15.36V381.952h30.3616v-25.3952h-30.3616v-48.2304h-26.5216v48.2304h-35.6864v25.3952h35.6864v58.5216a400.2304 400.2304 0 0 1-39.5776 11.4688l7.2704 28.16c10.8544-3.584 21.7088-7.5264 32.3072-11.4176v59.904c0 6.7072-3.328 10.3424-10.0352 10.3424-6.656 0-13.6704-0.512-20.8896-1.6896l6.144 25.9584h23.9616c18.1248 0 27.3408-9.472 27.3408-27.904V457.216c10.5984-4.7104 20.8896-9.728 30.9248-15.0528v-27.3408zM800.3584 307.2l-23.3984 11.1616c8.9088 10.8544 17.5616 23.1424 25.6512 36.8128l23.7056-11.9808A458.2912 458.2912 0 0 0 800.4096 307.2z" fill="#ffffff" p-id="38833"></path><path d="M752.5376 0v209.3568H360.0384V0h392.4992z m-62.2592 62.2592H422.2464v84.8384h268.032V62.2592z" fill="#2c2c2c" p-id="38834"></path></svg>