<svg t="1700194011935" class="icon" viewBox="0 0 1024 1024" version="1.1" xmlns="http://www.w3.org/2000/svg" p-id="2644" width="16" height="16"><path d="M736.853333 802.730667c-75.52 44.586667-149.674667 51.754667-226.602666 5.333333 3.328-2.986667 6.101333-6.229333 9.429333-8.576 35.754667-25.813333 39.594667-53.077333 20.096-93.653333-18.688-38.912-37.504-79.232-47.445333-120.917334-19.498667-80.810667 23.509333-156.842667 95.018666-178.816 96.213333-29.568 189.226667 49.578667 180.565334 153.813334-4.053333 49.834667-21.418667 95.317333-46.08 138.325333-26.837333 46.592-24.490667 65.28 15.018666 104.490667" fill="#231815" p-id="2645"></path><path d="M683.178667 386.944l-44.416-9.770667v-25.728c0-63.658667-0.512-127.36 0.341333-191.061333 0.170667-16.853333-4.266667-23.509333-22.016-22.442667-22.912 1.493333-45.994667 0.426667-68.992 0.426667-12.672 0-25.258667-2.517333-32.768 13.44-2.474667 5.205333-14.634667 8.021333-22.229333 8.064a3947.264 3947.264 0 0 1-158.933334-0.256c-9.728-0.213333-19.157333-9.088-28.757333-13.824-4.906667-2.517333-9.898667-6.954667-14.976-7.125333-36.010667-0.554667-72.021333 0.341333-108.16-0.554667-16.896-0.426667-15.914667 9.685333-15.914667 20.906667 0.170667 75.178667 0.085333 150.357333 0.085334 225.536v382.208c0 30.762667 0.085333 30.848 29.994666 30.848 87.552 0.085333 174.976 0 264.021334 4.010666-6.912 2.688-13.738667 5.504-20.650667 8.234667-24.661333 9.813333-49.237333 20.010667-74.24 29.354667a56.533333 56.533333 0 0 1-19.84 3.328c-58.325333 0.341333-116.522667 0.341333-174.933333 0.085333-38.4-0.256-49.408-11.349333-49.408-48.896V140.117333c0-35.029333 10.752-46.122667 46.677333-46.592 38.997333-0.469333 78.336 0.469333 117.418667-0.682666 7.466667-0.213333 14.549333-7.210667 21.973333-10.496 8.704-3.925333 17.621333-10.24 26.368-10.410667 52.949333-0.896 105.770667-0.725333 158.848-0.170667 7.253333 0.042667 18.688 1.749333 20.992 6.229334 9.258667 19.498667 25.770667 15.104 41.088 15.146666 28.416 0.298667 56.917333-0.512 85.162667 0.298667 33.066667 0.896 43.264 12.032 43.264 45.098667v248.405333z" fill="#231815" p-id="2646"></path><path d="M900.181333 952.661333H379.178667c-27.349333 0-28.330667-1.834667-25.6-28.586666 4.608-44.16 25.6-71.594667 70.101333-85.504 36.736-11.349333 67.413333-16.512 104.832 3.072 76.16 40.064 151.466667 22.570667 223.402667-17.749334 5.674667-3.242667 14.165333-5.162667 20.309333-3.413333 23.594667 6.485333 46.848 14.421333 69.845333 22.485333 45.610667 15.957333 68.266667 57.386667 58.112 109.696" fill="#231815" p-id="2647"></path><path d="M210.688 600.917333h118.912v118.570667H210.688v-118.570667z m97.066667 22.528H233.258667v74.624h74.496v-74.624z" fill="#231815" p-id="2648"></path><path d="M329.856 345.258667H211.157333V227.754667h118.698667v117.504z m-96.597333-22.229334h74.069333V250.24H233.258667v72.789333z" fill="#231815" p-id="2649"></path><path d="M329.856 533.589333H211.029333V415.018667h118.826667v118.570666z m-22.357333-97.237333H233.429333v74.496h74.069334v-74.496z" fill="#231815" p-id="2650"></path><path d="M366.336 249.088h226.517333c4.821333 13.482667 3.754667 21.248-13.610666 21.12-65.834667-0.426667-131.797333-0.384-197.632 0-14.165333 0.128-20.522667-4.053333-15.274667-21.12" fill="#231815" p-id="2651"></path><path d="M560.341333 312.874667H366.421333c-5.248-15.658667-1.066667-21.930667 15.189334-21.76 54.314667 0.682667 108.8 0.64 163.242666 0.042666 15.914667-0.128 20.992 5.376 15.488 21.717334" fill="#231815" p-id="2652"></path><path d="M362.026667 427.349333c5.333333-4.821333 10.410667-13.610667 15.914666-13.738666 47.914667-1.066667 95.914667-0.64 143.829334-0.64 0.896 2.261333 1.92 4.565333 2.901333 6.826666-9.429333 4.992-18.645333 13.909333-28.245333 14.165334-42.666667 1.621333-85.333333 0.725333-128.085334 0.725333a233.386667 233.386667 0 0 0-6.314666-7.338667" fill="#231815" p-id="2653"></path><path d="M483.669333 665.984c0.426667 7.594667 0.682667 13.354667 1.024 20.437333H367.274667c-1.834667-1.493333-3.413333-3.072-5.248-4.650666 4.992-5.248 9.813333-14.933333 14.976-15.104 35.072-1.322667 70.186667-0.682667 106.666666-0.682667" fill="#231815" p-id="2654"></path><path d="M364.330667 479.274667c0.597333-9.088 0.896-14.848 1.194666-21.632h128.085334c-11.050667 9.984-17.28 20.48-24.021334 20.864-34.005333 1.706667-68.266667 0.768-105.258666 0.768" fill="#231815" p-id="2655"></path><path d="M481.92 644.608c-33.493333 0-66.901333-0.64-100.437333 0.128-16.341333 0.426667-20.266667-6.101333-14.848-22.741333 33.578667 0 67.754667-0.768 101.845333 0.853333 6.058667 0.384 11.562667 10.965333 17.237333 16.853333-1.28 1.450667-2.56 3.242667-3.797333 4.906667" fill="#231815" p-id="2656"></path><path d="M367.36 502.528h102.229333c2.688 15.146667-2.901333 20.864-16.896 20.565333-24.448-0.426667-48.896 0.725333-73.344-0.725333-6.144-0.341333-11.690667-7.936-17.578666-12.245333l5.589333-7.594667" fill="#231815" p-id="2657"></path></svg>